<?xml version="1.0" encoding="utf-8" ?><svg xmlns="http://www.w3.org/2000/svg" xmlns:xlink="http://www.w3.org/1999/xlink" width="1024" height="1024" viewBox="0 0 1024 1024"><path transform="scale(2 2)" d="M261.84 147.76C262.499 146.553 263.155 145.355 263.982 144.266C289.551 110.627 345.21 100.45 379.313 126.063C417.554 151.218 425.046 205.817 401.359 243.96C399.619 246.759 390.625 259.527 388.151 260.363C391.238 266.675 383.45 269.978 379.313 273.815C394.682 282.129 404.149 315.623 403.516 333.023C403.316 338.528 404.163 342.827 397.331 342.879C395.321 347.927 394.874 352.063 393.45 356.78C399.803 360.135 395.34 366.191 392.984 370.591C370.448 412.672 314.549 426.814 274.085 402.195C269.563 399.444 255.279 389.661 267.518 386.519C264.672 384.019 261.766 380.864 258.816 378.681C255.564 383.528 252.238 382.475 248.863 378.681C247.389 380.845 245.326 382.936 243.504 384.823C202.976 426.807 133.697 421.813 97.963 376.259C96.3432 374.194 94.0202 371.2 93.1191 368.732C93.7753 364.514 96.6078 360.422 101.271 363.751C103.589 362.166 106.073 362.005 108.719 360.23C112.435 356.334 111.337 353.465 108.975 349.393C99.9599 333.849 99.6308 313.715 106.641 297.374C108.227 293.677 111.142 290.601 112.685 287.023C110.261 278.531 117.017 268.693 126.204 270.258C131.777 257.588 142.52 261.419 149.742 270.258C150.652 270.167 151.651 270.229 152.574 270.258L153.156 270.05C163.891 248.711 192.246 245.87 213.199 249.405C213.288 249.374 213.376 249.344 213.464 249.314C210.172 247.214 207.836 246.257 204.276 244.835C151.054 223.581 92.5086 261.722 88.787 318.521C88.1762 323.173 91.1127 332.69 83.444 332.542C78.3304 332.075 78.4485 327.333 78.52 323.505C79.0985 292.551 94.3272 262.867 120.181 245.502C123.315 243.397 126.598 241.316 129.607 238.999C126.782 233.233 124.663 228.749 120.583 223.622C118.654 220.937 114.018 217.649 113.086 214.542C111.169 208.153 124.752 203.916 128.88 202.997C141.855 200.108 152.822 203.518 163.782 210.454C165.272 206.868 169.4 187.014 176.607 198.674C177.503 204.043 172.723 211.814 172.423 217.547C172.211 221.58 172.741 225.307 173.032 229.307C174.169 229.251 175.456 229.296 176.607 229.307C176.302 225.01 177.444 222.451 178.251 218.545C187.243 175.076 229.077 150.184 271.597 163.454C271.736 163.434 271.875 163.415 272.014 163.396C254.6 149.698 227.692 150.839 208.971 161.247C204.898 163.512 199.761 168.257 196.426 169.058L196.059 169.142C182.458 164.771 200.724 154.627 205.299 151.844C203.845 144.948 194.49 130.977 194.53 129.89C194.764 123.364 209.785 120.987 213.911 120.92C222.987 120.774 228.942 124.106 235.11 129.963C239.509 125.536 252.152 114.049 256.959 123.044C256.872 130.892 246.665 130.207 239.301 139.519L239.301 143.132C247.334 143.88 254.567 143.942 261.84 147.76ZM323.799 225.752C328.238 222.658 348.725 208.395 347.169 223.331C346.799 226.883 339.785 227.728 337.246 229.037C332.62 231.183 328.696 234.234 324.735 237.379C324.75 239.762 324.867 242.959 324.735 245.278C338.204 247.111 353.192 250.763 363.793 259.697C367.284 261.526 369.57 263.296 372.472 265.989C375.731 263.655 380.366 259.579 383.859 258.664C385.971 259.328 386.224 259.567 388.151 260.363C390.625 259.527 399.619 246.759 401.359 243.96C425.046 205.817 417.554 151.218 379.313 126.063C345.21 100.45 289.551 110.627 263.982 144.266C263.155 145.355 262.499 146.553 261.84 147.76C269.496 148.483 285.133 158.411 291.149 163.413C312.177 180.895 319.596 200.061 323.799 225.752ZM214.489 147.76L219.044 146.155C218.269 145.095 215.071 144.051 213.464 143.132C213.713 144.705 213.878 146.298 214.489 147.76Z"/><path fill="#BCDEF6" transform="scale(2 2)" d="M152.574 270.258L153.156 270.05C163.891 248.711 192.246 245.87 213.199 249.405C213.288 249.374 213.376 249.344 213.464 249.314C218.248 250.728 226.626 257.299 230.697 260.363C236.255 265.363 240.661 269.752 245.437 275.61C248.057 278.824 250.427 283.486 253.311 285.976C251.647 288.276 246.279 296.027 245.515 298.358C250.186 302.367 245.854 308.479 244.918 314.447C243.61 322.782 242.647 347.627 248.863 354.686C249.852 363.336 259.348 373.262 258.816 378.681C255.564 383.528 252.238 382.475 248.863 378.681C247.389 380.845 245.326 382.936 243.504 384.823C202.976 426.807 133.697 421.813 97.963 376.259C96.3432 374.194 94.0202 371.2 93.1191 368.732C93.7753 364.514 96.6078 360.422 101.271 363.751C103.589 362.166 106.073 362.005 108.719 360.23C112.435 356.334 111.337 353.465 108.975 349.393C99.9599 333.849 99.6308 313.715 106.641 297.374C108.227 293.677 111.142 290.601 112.685 287.023C110.261 278.531 117.017 268.693 126.204 270.258C131.777 257.588 142.52 261.419 149.742 270.258C150.652 270.167 151.651 270.229 152.574 270.258Z"/><path fill="#5389B4" transform="scale(2 2)" d="M230.697 260.363C236.255 265.363 240.661 269.752 245.437 275.61C248.057 278.824 250.427 283.486 253.311 285.976C251.647 288.276 246.279 296.027 245.515 298.358C250.186 302.367 245.854 308.479 244.918 314.447C243.61 322.782 242.647 347.627 248.863 354.686C249.852 363.336 259.348 373.262 258.816 378.681C255.564 383.528 252.238 382.475 248.863 378.681C247.389 380.845 245.326 382.936 243.504 384.823C202.976 426.807 133.697 421.813 97.963 376.259C96.3432 374.194 94.0202 371.2 93.1191 368.732C93.7753 364.514 96.6078 360.422 101.271 363.751C103.589 362.166 106.073 362.005 108.719 360.23C119.527 361.801 129.057 362.907 139.917 361.904C190.659 357.217 235.536 312.555 230.697 260.363Z"/><path transform="scale(2 2)" d="M237.508 354.686C233.207 340.48 232.868 323.893 235.784 309.375C236.807 304.28 238.025 295.196 245.515 298.358C250.186 302.367 245.854 308.479 244.918 314.447C243.61 322.782 242.647 347.627 248.863 354.686C249.852 363.336 259.348 373.262 258.816 378.681C255.564 383.528 252.238 382.475 248.863 378.681C247.389 380.845 245.326 382.936 243.504 384.823C202.976 426.807 133.697 421.813 97.963 376.259C96.3432 374.194 94.0202 371.2 93.1191 368.732C93.7753 364.514 96.6078 360.422 101.271 363.751L101.487 364.012C102.994 365.857 104.137 367.832 105.551 369.739C116.693 384.758 139.621 400.079 158.755 402.244C159.938 401.39 165.757 400.57 168.326 399.834C172.449 398.652 199.147 391.623 199.535 388.621C205.763 386.505 230.881 378.112 223.769 368.732C228.671 364.849 233.546 359.496 237.508 354.686Z"/><path fill="#5389B4" transform="scale(2 2)" d="M223.769 368.732C228.671 364.849 233.546 359.496 237.508 354.686C239.522 360.133 241.301 364.477 243.773 369.726C224.371 393.151 189.384 410.625 158.755 402.244C159.938 401.39 165.757 400.57 168.326 399.834C172.449 398.652 199.147 391.623 199.535 388.621C205.763 386.505 230.881 378.112 223.769 368.732Z"/><path transform="scale(2 2)" d="M199.535 388.621C194.791 390.08 186.228 392.247 181.405 391.009C179.043 390.402 177.687 386.545 179.007 384.258C181.069 380.684 184.803 381.752 188.153 381.078C196.475 379.404 204.453 376.518 211.757 372.184C216.096 369.627 218.975 365.868 223.769 368.732C230.881 378.112 205.763 386.505 199.535 388.621Z"/><path transform="scale(2 2)" d="M126.204 270.258C131.777 257.588 142.52 261.419 149.742 270.258C150.652 270.167 151.651 270.229 152.574 270.258C164.81 273.804 166.235 285.678 157.69 293.964C163.267 308.748 148.566 319.763 137.104 311.669C124.503 319.967 109.954 306.676 117.599 293.964C115.442 291.99 113.553 289.909 112.685 287.023C110.261 278.531 117.017 268.693 126.204 270.258Z"/><path fill="#5389B4" transform="scale(2 2)" d="M135.992 272.277C142.691 271.71 139.122 276.876 144.345 279.417C145.963 280.388 150.689 279.065 151.972 280.268C156.642 285.322 149.646 286.452 147.183 290.234C143.639 295.678 154.971 301.351 145.811 304.589C143.617 305.365 141.251 302.502 139.488 301.217C133.632 299.065 133.594 303.645 129.636 304.351C123.964 305.362 125.206 299.535 126.743 296.679C131.436 287.959 121.41 287.836 121.765 283.309C122.605 278.012 128.578 281.147 131.597 278.796C134.107 276.732 133.893 274.417 135.992 272.277Z"/><path fill="#BCDEF6" transform="scale(2 2)" d="M253.311 285.976C256.724 286.94 258.502 286.348 260.687 283.427C275.525 263.584 297.375 254.831 321.45 255.238C334.543 255.905 354.696 261.882 363.793 272.277C382.191 282.518 394.321 311.662 393.463 331.998C393.227 337.597 391.988 340.105 397.331 342.879C395.321 347.927 394.874 352.063 393.45 356.78C399.803 360.135 395.34 366.191 392.984 370.591C370.448 412.672 314.549 426.814 274.085 402.195C269.563 399.444 255.279 389.661 267.518 386.519C264.672 384.019 261.766 380.864 258.816 378.681C259.348 373.262 249.852 363.336 248.863 354.686C242.647 347.627 243.61 322.782 244.918 314.447C245.854 308.479 250.186 302.367 245.515 298.358C246.279 296.027 251.647 288.276 253.311 285.976Z"/><path fill="#5389B4" transform="scale(2 2)" d="M363.793 272.277C382.191 282.518 394.321 311.662 393.463 331.998C393.227 337.597 391.988 340.105 397.331 342.879C395.321 347.927 394.874 352.063 393.45 356.78C399.803 360.135 395.34 366.191 392.984 370.591C370.448 412.672 314.549 426.814 274.085 402.195C269.563 399.444 255.279 389.661 267.518 386.519C264.672 384.019 261.766 380.864 258.816 378.681C259.348 373.262 249.852 363.336 248.863 354.686C251.466 356.775 252.36 358.911 255.951 360.23C257.271 362.197 272.026 363.656 274.879 363.729C314.821 364.755 356.171 337.143 365.499 297.38C365.858 295.851 366.082 293.078 365.169 291.791C366.402 287.648 363.272 285.527 360.605 282.74C362.451 280.363 363.453 278.226 363.793 275.213L363.793 272.277Z"/><path fill="#5389B4" transform="scale(2 2)" d="M363.793 272.277C382.191 282.518 394.321 311.662 393.463 331.998C393.227 337.597 391.988 340.105 397.331 342.879C395.321 347.927 394.874 352.063 393.45 356.78C399.803 360.135 395.34 366.191 392.984 370.591C370.448 412.672 314.549 426.814 274.085 402.195C269.563 399.444 255.279 389.661 267.518 386.519C271.475 387.667 273.962 391.082 279.035 393.158C280.673 392.876 289.572 395.52 292.778 395.848C300.815 396.671 325.844 396.189 332.49 390.979C340.925 392.149 358.143 380.782 363.998 374.819C381.849 356.642 385.363 334.185 379.313 310.575C381.504 302.237 374.066 287.246 368.963 280.817C367.753 279.293 364.516 276.459 363.793 275.213L363.793 272.277Z"/><path transform="scale(2 2)" d="M279.035 393.158C281.905 395.455 284.647 396.773 287.981 398.271C323.937 414.426 369.2 398.438 385.944 362.538C388.037 358.05 388.397 356.911 393.45 356.78C399.803 360.135 395.34 366.191 392.984 370.591C370.448 412.672 314.549 426.814 274.085 402.195C269.563 399.444 255.279 389.661 267.518 386.519C271.475 387.667 273.962 391.082 279.035 393.158Z"/><path transform="scale(2 2)" d="M368.729 309.805C370.421 302.71 376.693 303.539 379.313 310.575C385.363 334.185 381.849 356.642 363.998 374.819C358.143 380.782 340.925 392.149 332.49 390.979C323.624 384.133 335.092 380.905 339.706 379.101C362.253 370.283 375.77 345.576 371.92 321.817C371.273 317.828 369.583 314.107 368.8 310.171L368.729 309.805Z"/><path fill="white" transform="scale(2 2)" d="M253.311 285.976C256.724 286.94 258.502 286.348 260.687 283.427C275.525 263.584 297.375 254.831 321.45 255.238C316.665 263.179 284.218 276.588 282.855 284.322C277.392 284.959 274.906 287.34 272.014 291.791C258.158 297.568 254.728 327.228 260.923 339.998C264.956 348.313 271.294 358.482 255.951 360.23C252.36 358.911 251.466 356.775 248.863 354.686C242.647 347.627 243.61 322.782 244.918 314.447C245.854 308.479 250.186 302.367 245.515 298.358C246.279 296.027 251.647 288.276 253.311 285.976Z"/><path transform="scale(2 2)" d="M282.855 284.322C288.076 283.636 291.919 284.144 294.94 288.934C295.039 290.808 295.295 290.198 296.674 291.791C296.342 294.583 297.174 296.024 299.547 297.466C299.591 298.573 299.621 299.295 299.547 300.394C314.781 296.103 303.822 331.256 288.652 321.758C276.203 326.3 266.773 313.748 273.13 302.509C270.757 298.534 270.883 296.08 272.014 291.791C274.906 287.34 277.392 284.959 282.855 284.322Z"/><path fill="#5389B4" transform="scale(2 2)" d="M294.94 288.934C295.039 290.808 295.295 290.198 296.674 291.791C296.342 294.583 297.174 296.024 299.547 297.466C299.591 298.573 299.621 299.295 299.547 300.394C292.45 304.446 298.496 308.297 294.22 313.22C293.4 314.164 290.993 311.358 289.631 311.196C286.923 310.874 285.579 312.098 283.371 313.732C277.524 309.021 282.6 308.13 283.408 303.576C284.303 298.529 277.125 297.242 284.358 293.177C289.212 294.708 293.56 295.247 294.94 288.934Z"/><path transform="scale(2 2)" d="M365.169 291.791C360.053 299.487 355.982 291.981 351.761 287.974C345.508 282.038 349.57 270.813 360.605 282.74C363.272 285.527 366.402 287.648 365.169 291.791Z"/><path transform="scale(2 2)" d="M296.674 291.791C303.25 282.077 309.864 299.057 299.547 297.466C297.174 296.024 296.342 294.583 296.674 291.791Z"/><path transform="scale(2 2)" d="M337.569 269.043C340.556 268.751 343.226 270.908 343.567 273.889C343.909 276.871 341.796 279.575 338.82 279.965C336.852 280.223 334.897 279.4 333.706 277.811C332.516 276.222 332.275 274.115 333.075 272.298C333.876 270.481 335.594 269.237 337.569 269.043Z"/><path fill="#23007E" transform="scale(2 2)" d="M261.84 147.76C262.499 146.553 263.155 145.355 263.982 144.266C289.551 110.627 345.21 100.45 379.313 126.063C417.554 151.218 425.046 205.817 401.359 243.96C399.619 246.759 390.625 259.527 388.151 260.363C386.224 259.567 385.971 259.328 383.859 258.664C380.366 259.579 375.731 263.655 372.472 265.989C369.57 263.296 367.284 261.526 363.793 259.697C353.192 250.763 338.204 247.111 324.735 245.278C324.867 242.959 324.75 239.762 324.735 237.379C328.696 234.234 332.62 231.183 337.246 229.037C339.785 227.728 346.799 226.883 347.169 223.331C348.725 208.395 328.238 222.658 323.799 225.752C319.596 200.061 312.177 180.895 291.149 163.413C285.133 158.411 269.496 148.483 261.84 147.76ZM387.1 193.173C380.991 208.204 394.214 213.8 397.331 199.959C397.304 199.772 397.329 198.918 397.331 198.674C396.718 193.386 396.226 192.852 391.492 190.525C389.371 191.264 388.517 191.393 387.1 193.173ZM288.652 144.518C280.445 148.531 283.129 158.339 291.159 157.621C299.855 153.247 296.854 143.605 288.652 144.518ZM387.1 170.532C384.75 171.886 383.397 173.322 381.954 175.623L382.176 176.065C384.911 181.561 383.732 186.606 391.492 186.247C399.456 183.38 395.457 169.683 387.1 170.532ZM356.951 137.248C353.666 127.696 332.149 127.803 323.799 128.222C315.847 129.26 289.797 136.101 306.858 146.155C315.761 141.357 322.449 139.182 332.49 139.519C343.209 139.472 353.55 148.787 356.951 137.248ZM362.559 147.76C364.741 152.741 368.401 154.55 372.051 158.38C375.29 161.779 376.781 167.412 381.954 167.674C385.163 167.012 386.689 164.614 388.151 161.909C385.205 156.138 375.504 142.653 368.729 141.806C364.621 142.703 364.066 143.996 362.559 147.76Z"/><path fill="#23007E" transform="scale(2 2)" d="M379.313 126.063C417.554 151.218 425.046 205.817 401.359 243.96C399.619 246.759 390.625 259.527 388.151 260.363C386.224 259.567 385.971 259.328 383.859 258.664C380.366 259.579 375.731 263.655 372.472 265.989C369.57 263.296 367.284 261.526 363.793 259.697C376.19 254.641 389.761 231.62 393.953 219.683C395.173 216.211 398.915 203.344 397.331 199.959C397.304 199.772 397.329 198.918 397.331 198.674C399.003 196.328 398.052 189.288 397.801 186.414C396.083 166.768 389.372 147.409 380.25 130.008C379.664 128.889 378.874 127.28 379.313 126.063Z"/><path fill="#BCDEF6" transform="scale(2 2)" d="M176.607 229.307C176.302 225.01 177.444 222.451 178.251 218.545C187.243 175.076 229.077 150.184 271.597 163.454C271.736 163.434 271.875 163.415 272.014 163.396C273.585 164.297 281.621 170.271 282.855 171.494C283.328 172.822 283.615 173.224 284.358 174.398C285.338 174.765 286.627 175.205 287.549 175.623C289.553 176.881 289.734 177.939 289.712 180.269L287.549 184.027C288.714 186.456 287.24 192.205 286.383 194.664C279.784 213.6 250.963 241.901 232.357 249.314C215.32 237.531 197.858 229.107 176.607 229.307Z"/><path transform="scale(2 2)" d="M272.014 174.398C274.992 175.21 276.603 177.134 279.035 179.119C280.681 176.462 281.07 175.069 284.358 174.398C285.338 174.765 286.627 175.205 287.549 175.623C289.553 176.881 289.734 177.939 289.712 180.269L287.549 184.027C281.211 192.998 280.274 193.801 271.745 186.337C266.885 182.085 263.512 176.095 272.014 174.398Z"/><path transform="scale(2 2)" d="M211.88 181.097C223.132 180.047 236.175 192.855 227.328 196.523C220.334 199.422 217.617 186.346 207.338 193.173L207.338 204.908C211.851 199.217 215.595 200.507 219.044 206.099C221.283 202.812 220.956 201.106 225.123 199.959C238.624 201.085 224.491 223.849 208.133 214.32C202.233 217.842 198.065 212.747 197.541 207.27C196.273 193.993 195.32 182.909 211.88 181.097Z"/><path transform="scale(2 2)" d="M252.629 166.356C254.38 165.836 256.276 166.299 257.59 167.567C258.905 168.836 259.435 170.714 258.977 172.483C258.519 174.251 257.144 175.637 255.379 176.108C252.702 176.823 249.948 175.255 249.196 172.588C248.444 169.922 249.973 167.146 252.629 166.356Z"/><path fill="#5389B4" transform="scale(2 2)" d="M289.712 180.269C291.717 183.558 294.894 198.874 293.505 202.249C278.436 197.993 288.539 214.403 289.712 221.429C285.365 221.547 279.531 222.465 276.172 225.45C274.088 227.303 275.309 231.266 277.404 232.392C284.417 236.162 287.297 242.839 288.601 250.405L288.652 250.718C283.548 252.596 277.622 255.574 273.13 258.664C269.708 256.603 257.626 249.002 254.865 254.91C251.358 262.413 260.231 263.13 264.866 264.971C261.275 267.889 258.973 270.338 255.951 273.815C250.767 265.029 240.351 255.63 232.357 249.314C250.963 241.901 279.784 213.6 286.383 194.664C287.24 192.205 288.714 186.456 287.549 184.027L289.712 180.269Z"/><path fill="#5389B4" transform="scale(2 2)" d="M288.652 174.398C301.952 186.244 312.406 207.719 313.336 225.506L313.347 225.752C309.245 223.804 304.127 221.672 299.547 221.429C298.85 210.876 295.011 208.57 293.505 202.249C294.894 198.874 291.717 183.558 289.712 180.269C289.734 177.939 289.553 176.881 287.549 175.623L288.652 174.398Z"/><path fill="#5389B4" transform="scale(2 2)" d="M282.855 171.494C284.93 172.459 286.648 173.3 288.652 174.398L287.549 175.623C286.627 175.205 285.338 174.765 284.358 174.398C283.615 173.224 283.328 172.822 282.855 171.494Z"/><path fill="white" transform="scale(2 2)" d="M134.619 212.34C145.43 211.108 155.027 215.597 162.586 223.024C162.865 225.543 163.159 226.828 163.782 229.307C159.115 229.875 155.46 230.628 150.877 231.667C146.445 232.852 142.893 234.156 138.614 235.774C134.764 225.353 131.886 222.584 126.204 214.32C129.182 213.076 131.418 212.757 134.619 212.34Z"/><path fill="#5389B4" transform="scale(2 2)" d="M291.159 230.957L294.94 230.957C302.382 231.296 310.055 234.421 314.864 240.248C314.615 242.09 314.754 243.427 314.864 245.278C307.304 245.382 305.393 245.871 298.205 247.444C297.263 242.415 296.304 238.705 293.505 234.27C292.621 232.819 292.254 232.254 291.159 230.957Z"/><path fill="#5389B4" transform="scale(2 2)" d="M291.159 230.957L294.94 230.957C294.595 232.234 294.254 233.156 293.505 234.27C292.621 232.819 292.254 232.254 291.159 230.957Z"/><path fill="#EFDC95" transform="scale(2 2)" d="M210.535 131.097C218.622 129.807 225.289 132.383 229.684 139.519C229.163 141.557 229.06 142.409 228.868 144.518C225.188 144.397 222.59 145.3 219.044 146.155C218.269 145.095 215.071 144.051 213.464 143.132C212.392 142.045 210.16 137.338 209.173 135.6C208.562 134.56 207.885 133.077 207.338 131.966C208.388 131.642 209.47 131.375 210.535 131.097Z"/><path fill="#EFDC95" transform="scale(2 2)" d="M207.338 131.966C208.388 131.642 209.47 131.375 210.535 131.097C211.352 132.566 211.451 135.035 209.923 136.005L209.173 135.6C208.562 134.56 207.885 133.077 207.338 131.966Z"/><path transform="scale(2 2)" d="M301.915 98.0441C307.688 95.6642 309.225 104.653 305.812 105.993C298.57 108.836 292.041 111.619 285.212 115.389C283.813 115.671 282.611 115.605 281.488 114.725C270.959 106.479 298.205 98.4703 301.915 98.0441Z"/><path transform="scale(2 2)" d="M328.747 93.0718C334.839 92.9343 344.56 93.748 350.238 95.6779C354.551 97.1439 354.347 103.086 348.911 104.841C345.96 104.703 342.239 103.742 339.164 103.447C332.343 102.724 325.703 104.966 323.799 98.0441C324.545 94.7769 325.231 93.4733 328.747 93.0718Z"/><path transform="scale(2 2)" d="M413.569 150.256C415.799 150.239 415.979 150.477 417.736 151.844L417.903 152.035C420.654 155.137 429.816 173.95 422.008 176.532C414.438 177.309 414.684 166.378 411.024 159.107C409.02 155.126 408.833 152.068 413.569 150.256Z"/><path transform="scale(2 2)" d="M423.61 195.085C430.123 195.777 430.072 217.478 422.008 220.348C418.569 220.219 417.688 219.145 416.249 216.221C417.112 211.609 418.185 208.005 418.394 203.098C418.619 197.814 418.103 195.749 423.61 195.085Z"/><path transform="scale(2 2)" d="M374.049 106.026C378.091 105.858 396.134 115.549 384.775 121.255C380.579 121.811 362.922 110.638 374.049 106.026Z"/><path transform="scale(2 2)" d="M142.246 127.317C144.69 127.277 150.434 126.909 152.24 128.001C156.755 130.733 154.285 136.151 149.742 137.248C132.607 137.47 136.998 127.922 142.246 127.317Z"/><path transform="scale(2 2)" d="M162.586 139.519C170.92 139.171 170.602 153.674 164.664 156.25C155.841 156.247 157.02 141.739 162.586 139.519Z"/><path transform="scale(2 2)" d="M423.61 253.751C429.606 253.616 434.904 252.584 434.743 260.363C433.28 262.713 432.23 263.402 429.51 263.5C426.639 263.538 422.134 263.975 419.652 262.457C415.739 260.063 418.064 254.526 423.61 253.751Z"/><path transform="scale(2 2)" d="M162.586 108.007C165.233 107.912 166.423 108.485 168.497 109.966C169.051 114.644 169.647 122.643 164.664 124.51C157.191 124.187 157.281 113.671 160.068 109.966C161.031 109.001 161.343 108.613 162.586 108.007Z"/><path transform="scale(2 2)" d="M410.063 269.068C418.074 267.492 417.14 278.326 414.77 282.74C413.896 283.666 413.679 283.854 412.516 284.322C404.03 285.072 404.41 270.331 410.063 269.068Z"/><path transform="scale(2 2)" d="M395.871 124.51C401.157 124.216 409.23 133.546 400.613 137.248C394.749 137.493 387.55 127.626 395.871 124.51Z"/><path transform="scale(2 2)" d="M425.93 362.244C430.228 362.091 432.502 365.011 433.834 368.732C433.244 371.927 432.787 373.264 429.51 374.355C421.902 374.819 417.877 364.955 425.93 362.244Z"/><path transform="scale(2 2)" d="M88.748 345.754C94.5587 345.462 98.9755 354.806 90.3364 357.687C85.7127 358.086 84.1543 354.848 83.214 350.952C84.1455 347.276 85.3711 346.907 88.748 345.754Z"/><path transform="scale(2 2)" d="M84.3896 196.13C86.4194 195.639 88.5564 196.277 89.9839 197.802C91.4114 199.326 91.9087 201.5 91.2859 203.493C90.663 205.487 89.0162 206.991 86.9748 207.431C83.8727 208.1 80.8092 206.151 80.1016 203.057C79.3939 199.963 81.3051 196.876 84.3896 196.13Z"/><path transform="scale(2 2)" d="M181.088 171.494C188.182 171.373 189.252 179.971 182.442 182.099C178.466 182.737 177.413 179.641 176.607 176.532C177.398 173.506 178.193 172.642 181.088 171.494Z"/><path transform="scale(2 2)" d="M411.044 236.926C413.834 236.712 416.287 238.757 416.578 241.54C416.868 244.323 414.891 246.832 412.117 247.199C410.254 247.446 408.403 246.661 407.285 245.15C406.167 243.638 405.959 241.639 406.74 239.93C407.521 238.22 409.169 237.07 411.044 236.926Z"/><path transform="scale(2 2)" d="M264.866 121.255C271.627 121.025 273.558 128.522 267.518 131.966C260.52 132.328 258.476 124.002 264.866 121.255Z"/></svg>