<?xml version="1.0" encoding="utf-8" ?><svg xmlns="http://www.w3.org/2000/svg" xmlns:xlink="http://www.w3.org/1999/xlink" width="1024" height="1024" viewBox="0 0 1024 1024"><path fill="#EBF2FA" d="M0 0L69.1673 0L79.9975 0L151.156 0L161.238 0L233.843 0L271.698 0L324.217 0L334.505 0L405.321 0L415.988 0L486.968 0L688.142 0L974.281 0L1012.17 0L1024 0L1024 182.244L1024 267.319L1024 275.607L1024 398.666L1024 513.782L1024 607.073L1024 796.006L1024 811.972L1024 1024L0 1024L0 812.016L0 796.051L0 644.031L0 529.408L0 517.015L0 442.968L0 430.974L0 295.981L0 245.814L0 236.018L0 229.976L0 193.417L0 188.369L0 152.427L0 148.477L0 148.164L0 147.599L0 108.935L0 105L0 69.9468L0 65.3704L0 65.0555L0 0Z"/><path fill="#00A6F4" d="M0 796.051L233.767 796.007C233.889 801.346 234.549 806.659 235.736 811.867C239.742 829.45 249.6 845.152 263.696 856.401C291.605 878.676 330.933 879.641 359.902 858.763C375.525 847.503 386.537 830.962 390.897 812.204C392.12 806.945 392.804 801.576 392.94 796.178L1024 796.006L1024 811.972L1024 1024L0 1024L0 812.016L0 796.051Z"/><path fill="#0A3967" d="M392.94 796.178L1024 796.006L1024 811.972C1003.63 812.285 982.568 812.039 962.15 812.096L797.322 812.114L390.897 812.204C392.12 806.945 392.804 801.576 392.94 796.178Z"/><path fill="#0A3967" d="M0 796.051L233.767 796.007C233.889 801.346 234.549 806.659 235.736 811.867L0 812.016L0 796.051Z"/><path fill="#002B5E" d="M263.696 856.401C291.605 878.676 330.933 879.641 359.902 858.763C363.532 861.861 367.887 866.003 366.787 871.168C366.042 874.663 361.648 878.742 358.537 880.309C333.79 892.772 301.796 893.23 275.052 887.885C266.786 885.729 254.09 881.572 249.506 873.856C244.671 865.715 258.022 859.302 263.696 856.401Z"/><path fill="#A6C6F2" d="M576.364 902.548C576.788 902.843 576.516 902.609 576.926 903.465C576.096 904.582 575.169 904.646 573.796 905.034L573.216 904.112L573.619 903.269L576.364 902.548Z"/><path fill="#A6C6F2" d="M233.228 853.141C235.201 854.427 235.226 855.065 236.128 857.269L234.993 856.998C233.633 855.707 233.869 855.244 233.228 853.141Z"/><path fill="#A6C6F2" d="M819.723 948.905C822.433 949.227 822.829 949.857 824.917 951.626C822.234 951.374 821.635 950.661 819.723 948.905Z"/><path fill="#A6C6F2" d="M986.802 967.91L987.561 967.941L987.747 968.449L985.255 970.458L984.273 970.759C984.936 969.264 985.496 969.069 986.802 967.91Z"/><path fill="#A6C6F2" d="M58.9464 971.906C59.152 973.859 57.6672 974.406 56.2396 975.605L56.1582 974.741C56.5166 973.448 57.7947 972.777 58.9464 971.906Z"/><path fill="#A6C6F2" d="M610.4 854.99L610.765 855.444C610.3 856.754 609.042 857.309 607.807 858.128L607.397 857.811L607.516 857.034L610.4 854.99Z"/><path fill="#A6C6F2" d="M865.4 869.139L865.721 869.341C864.924 870.758 864.504 870.579 862.743 871.467L862.325 870.899L862.487 870.194L865.4 869.139Z"/><path fill="#A6C6F2" d="M1015.63 861.241L1016.26 861.442L1016.39 862.071L1014.42 864.27L1013.78 864.028L1013.53 863.353L1015.63 861.241Z"/><path fill="#00A6F4" d="M0 295.981L368.835 295.856C368.547 329.17 368.549 362.486 368.843 395.8L368.633 568.814C368.634 593.545 369.304 619.424 368.841 643.998L0 644.031L0 529.408L0 517.015L0 442.968L0 430.974L0 295.981Z"/><path fill="#DFD3FD" d="M29.8809 414.573C45.186 414.487 61.1359 414.18 76.3906 414.446L76.0579 457.882C61.1446 457.463 44.7232 457.855 29.6993 457.921C30.3912 445.243 29.9611 427.594 29.8809 414.573Z"/><path fill="#DFD3FD" d="M30.1409 492.001L75.9924 492.036L75.9858 532.506L30.2466 532.593L30.1409 492.001Z"/><path fill="white" d="M22.386 491.995L30.1409 492.001L30.2466 532.593L75.9858 532.506L76.0274 539.263C58.0445 539.434 40.0609 539.509 22.0773 539.489L22.0173 529.103L22.0882 516.947L22.386 491.995Z"/><path fill="white" d="M22.4545 414.59L29.8809 414.573C29.9611 427.594 30.3912 445.243 29.6993 457.921C44.7232 457.855 61.1446 457.463 76.0579 457.882L76.0441 464.442C58.1726 464.769 40.2987 464.957 22.4242 465.004C22.8368 453.563 22.5248 440.223 22.5116 428.66C22.2625 424.681 22.4534 418.718 22.4545 414.59Z"/><path fill="#EBF2FA" d="M0 430.974C6.30677 430.974 14.9441 431.458 21.25 430.555C22.0719 430.437 22.0343 429.788 22.5116 428.66C22.5248 440.223 22.8368 453.563 22.4242 465.004C21.7908 460.973 22.133 447.904 22.1265 442.975L0 442.968L0 430.974Z"/><path fill="#EBF2FA" d="M0 517.015L22.0882 516.947L22.0173 529.103C14.7254 529.448 7.30922 529.389 0 529.408L0 517.015Z"/><path fill="#DFD3FD" d="M22.3093 337.921L29.9339 337.911L76.0414 337.925L75.9988 382.679L75.9985 389.069L22.1038 389.07C21.6971 372.599 22.1609 354.45 22.3093 337.921Z"/><path fill="white" d="M22.3093 337.921L29.9339 337.911C29.8378 352.802 29.8191 367.692 29.8776 382.583C44.0802 382.582 62.1169 382.051 75.9988 382.679L75.9985 389.069L22.1038 389.07C21.6971 372.599 22.1609 354.45 22.3093 337.921Z"/><path fill="#DFD3FD" d="M145.953 337.437L153.352 337.616C167.336 338.321 184.117 337.424 198.52 337.483C198.558 352.652 198.499 367.822 198.342 382.991L198.266 389.109L145.998 389.167L145.953 337.437Z"/><path fill="white" d="M145.953 337.437L153.352 337.616C153.275 352.135 153.669 368.12 153.249 382.438C158.294 382.442 197.113 382.135 198.342 382.991L198.266 389.109L145.998 389.167L145.953 337.437Z"/><path fill="#DFD3FD" d="M153.087 414.893L198.66 414.882C198.599 419.222 198.661 424.288 198.457 428.561C198.216 432.823 198.096 435.995 198.47 440.273C198.488 446.062 198.609 452.232 198.487 457.988L198.555 465.003L146.014 465.043C145.862 453.165 145.987 441.004 145.979 429.103L145.989 415.149C148.368 415.03 150.704 414.883 153.087 414.893Z"/><path fill="white" d="M145.989 415.149C148.368 415.03 150.704 414.883 153.087 414.893C153.107 428.56 153.529 444.536 153.015 458.017C167.585 457.986 184.079 457.559 198.487 457.988L198.555 465.003L146.014 465.043C145.862 453.165 145.987 441.004 145.979 429.103L145.989 415.149Z"/><path fill="#DFD3FD" d="M275.025 337.511C289.363 337.294 303.703 337.272 318.042 337.444L318.012 382.738L318.033 389.207C301.654 389.342 285.273 389.309 268.895 389.11C268.631 372.107 268.836 354.598 268.865 337.573L275.025 337.511Z"/><path fill="white" d="M268.865 337.573L275.025 337.511L274.992 382.778C288.454 382.666 304.732 382.224 318.012 382.738L318.033 389.207C301.654 389.342 285.273 389.309 268.895 389.11C268.631 372.107 268.836 354.598 268.865 337.573Z"/><path fill="#DFD3FD" d="M22.4067 564.044C25.0077 564.09 27.6083 564.158 30.2082 564.246C44.6856 564.486 62.0032 563.776 75.9777 564.451C75.9683 577.5 76.1558 591.056 75.9387 604.06L75.628 610.743C60.7352 611.723 37.9559 611.048 22.4052 611.023C21.6817 597.684 22.339 577.933 22.4067 564.044Z"/><path fill="white" d="M22.4067 564.044C25.0077 564.09 27.6083 564.158 30.2082 564.246L30.1483 603.996C45.0118 603.971 61.1793 603.633 75.9387 604.06L75.628 610.743C60.7352 611.723 37.9559 611.048 22.4052 611.023C21.6817 597.684 22.339 577.933 22.4067 564.044Z"/><path fill="#DFD3FD" d="M153.359 564.538C168.358 564.427 183.357 564.412 198.357 564.494L198.373 577.565C198.44 581.39 198.481 585.215 198.497 589.04L198.577 604.06C198.749 606.302 198.782 608.702 198.858 610.963C181.288 611.173 163.549 611.058 145.966 611.063C145.781 595.721 145.973 580.013 145.993 564.643L153.359 564.538Z"/><path fill="white" d="M145.993 564.643L153.359 564.538L153.358 604.119C168.058 604.077 183.977 603.719 198.577 604.06C198.749 606.302 198.782 608.702 198.858 610.963C181.288 611.173 163.549 611.058 145.966 611.063C145.781 595.721 145.973 580.013 145.993 564.643Z"/><path fill="#DFD3FD" d="M275.216 415.082L318.033 414.967L318.058 457.981L318.061 464.051C301.599 464.171 285.136 464.186 268.674 464.095C268.48 447.949 268.728 431.252 268.813 415.062L275.216 415.082Z"/><path fill="white" d="M268.813 415.062L275.216 415.082L274.975 457.952L318.058 457.981L318.061 464.051C301.599 464.171 285.136 464.186 268.674 464.095C268.48 447.949 268.728 431.252 268.813 415.062Z"/><path fill="#DFD3FD" d="M275.1 491.012L317.979 490.995L317.974 533.038L318.018 539.488L268.782 539.486C268.619 523.468 268.816 507.11 268.825 491.063L275.1 491.012Z"/><path fill="white" d="M268.825 491.063L275.1 491.012L275.037 532.993C288.94 532.986 304.182 532.66 317.974 533.038L318.018 539.488L268.782 539.486C268.619 523.468 268.816 507.11 268.825 491.063Z"/><path fill="#DFD3FD" d="M268.812 563.986L275.14 563.962L318.021 563.978L318.02 604.5L318.042 611.044L268.901 611.072L268.812 563.986Z"/><path fill="white" d="M268.812 563.986L275.14 563.962L275.09 604.549L318.02 604.5L318.042 611.044L268.901 611.072L268.812 563.986Z"/><path fill="#EBF2FA" d="M104.419 337.373L117.315 337.491C117.798 363.291 117.428 390.049 117.359 415.917C123.666 415.849 140.694 416.002 145.989 415.149L145.979 429.103C132.184 429.335 117.813 429.116 103.974 429.095L104.419 337.373Z"/><path fill="#EBF2FA" d="M198.457 428.561C218.466 428.112 238.922 428.269 259.007 428.041L258.843 440.987L222.579 440.916C214.866 440.883 206.052 441.045 198.47 440.273C198.096 435.995 198.216 432.823 198.457 428.561Z"/><path fill="#EBF2FA" d="M198.373 577.565C217.424 577.495 241.013 576.497 259.555 577.207L259.58 589.103C240.524 589.572 217.478 589.798 198.497 589.04C198.481 585.215 198.44 581.39 198.373 577.565Z"/><path fill="#EBF2FA" d="M147.992 472.964C151.751 472.927 155.579 472.982 159.345 472.998L159.392 518.846C156.525 519.277 151.118 519.093 148.009 519.074C147.801 503.84 147.982 488.227 147.992 472.964Z"/><path fill="#A6C6F2" d="M0 0L69.1673 0L79.9975 0L151.156 0L161.238 0L233.843 0L271.698 0L324.217 0L334.505 0L405.321 0L415.988 0L486.968 0C486.875 13.789 486.521 28.6804 486.902 42.3782L486.857 73.9635L486.916 79.0429C486.629 116.05 486.657 153.059 486.998 190.066L486.907 237.971C486.888 240.652 486.877 243.241 486.741 245.924C473.152 245.359 457.055 245.966 443.169 245.965L341.774 246.144L0 245.814L0 236.018L0 229.976L0 193.417L0 188.369L0 152.427L0 148.477L0 148.164L0 147.599L0 108.935L0 105L0 69.9468L0 65.3704L0 65.0555L0 0Z"/><path fill="#002B5E" d="M161.238 0L233.843 0L271.698 0L324.217 0C324.214 8.10497 324.114 16.4413 324.33 24.5239C324.357 25.9358 324.439 27.6197 324.343 28.998C324.367 33.5319 324.867 62.9021 323.919 64.8631L323.181 65.2614L324.253 65.8353C324.493 67.507 324.474 67.9048 324.447 69.5402C324.535 73.5435 325.732 103.542 323.93 105.076C323.86 105.135 323.768 105.161 323.687 105.203L324.387 105.786C324.504 107.383 324.549 108.335 324.527 109.928C325.021 121.916 324.659 135.392 324.73 147.546C317.033 147.577 305.053 147.279 297.75 147.874C294.649 147.919 291.399 147.854 288.285 147.839L282 147.91C280.986 149.734 279.927 150.826 279.089 152.639L279.055 152.885L271.789 152.909C271.909 164.609 271.532 177.963 271.946 189.419C289.467 189.559 306.989 189.547 324.51 189.383L324.467 194.298C325.272 204.025 325.01 220.272 324.473 230.039L324.152 236.985C270.699 235.718 214.71 236.513 161.047 236.602C161.005 227.359 161.051 218.115 161.185 208.873C160.953 203.88 161.181 196.776 161.19 191.629L161.238 0Z"/><path fill="white" d="M271.698 0L324.217 0C324.214 8.10497 324.114 16.4413 324.33 24.5239C324.357 25.9358 324.439 27.6197 324.343 28.998C324.367 33.5319 324.867 62.9021 323.919 64.8631L323.181 65.2614L324.253 65.8353C324.493 67.507 324.474 67.9048 324.447 69.5402C315.089 69.4792 305.731 69.469 296.373 69.5096C294.013 69.5262 291.653 69.4781 289.296 69.3653L290.245 68.7316L290.283 65.4134C283.897 65.53 277.977 65.4206 271.588 65.2491L271.661 28.9778L260.435 28.8763L260.261 28.4539C264.119 28.119 268.464 29.2582 271.504 27.7984C272.161 27.4833 272.283 25.8565 272.5 24.8986L271.714 24.618C271.568 16.5122 271.686 8.12787 271.698 0Z"/><path fill="white" d="M271.698 0L324.217 0C324.214 8.10497 324.114 16.4413 324.33 24.5239L320.324 24.6875L311.273 24.8716L272.5 24.8986L271.714 24.618C271.568 16.5122 271.686 8.12787 271.698 0Z"/><path fill="#0A3967" d="M272.5 24.8986L311.273 24.8716C312.219 26.5441 312.783 26.7708 312.478 28.1731C311.558 28.4449 310.634 28.7057 309.708 28.9555L271.661 28.9778L260.435 28.8763L260.261 28.4539C264.119 28.119 268.464 29.2582 271.504 27.7984C272.161 27.4833 272.283 25.8565 272.5 24.8986Z"/><path fill="#0A3967" d="M297.604 65.3976C304.032 65.4694 316.922 65.7367 323.181 65.2614L324.253 65.8353C324.493 67.507 324.474 67.9048 324.447 69.5402C315.089 69.4792 305.731 69.469 296.373 69.5096C296.398 68.3997 297.193 66.53 297.604 65.3976Z"/><path fill="#064789" d="M324.33 24.5239C324.357 25.9358 324.439 27.6197 324.343 28.998L321.151 28.9383L309.708 28.9555C310.634 28.7057 311.558 28.4449 312.478 28.1731C312.783 26.7708 312.219 26.5441 311.273 24.8716L320.324 24.6875L324.33 24.5239Z"/><path fill="#0A3967" d="M290.283 65.4134L297.604 65.3976C297.193 66.53 296.398 68.3997 296.373 69.5096C294.013 69.5262 291.653 69.4781 289.296 69.3653L290.245 68.7316L290.283 65.4134Z"/><path fill="white" d="M271.713 105.342C288.849 105.633 306.475 105.172 323.687 105.203L324.387 105.786C324.504 107.383 324.549 108.335 324.527 109.928C325.021 121.916 324.659 135.392 324.73 147.546C317.033 147.577 305.053 147.279 297.75 147.874C294.649 147.919 291.399 147.854 288.285 147.839L282 147.91C280.986 149.734 279.927 150.826 279.089 152.639L271.978 152.634C271.7 150.689 271.669 149.928 270.961 148.129L270.831 147.694L271.415 147.679L271.527 109.943L250.025 109.88L250.121 109.621L252.143 109.261L250.639 108.621C249.104 105.757 248.965 106.252 245.878 106.203C244.323 106.74 243.907 106.352 242.042 106.032L242.229 105.441C252.056 105.256 261.885 105.222 271.713 105.342Z"/><path fill="#002B68" d="M271.713 105.342C288.849 105.633 306.475 105.172 323.687 105.203L324.387 105.786C324.504 107.383 324.549 108.335 324.527 109.928L271.527 109.943L250.025 109.88L250.121 109.621L252.143 109.261L250.639 108.621C249.104 105.757 248.965 106.252 245.878 106.203C244.323 106.74 243.907 106.352 242.042 106.032L242.229 105.441C252.056 105.256 261.885 105.222 271.713 105.342Z"/><path fill="#0A3967" d="M271.415 147.679C274.941 147.843 278.47 147.92 282 147.91C280.986 149.734 279.927 150.826 279.089 152.639L271.978 152.634C271.7 150.689 271.669 149.928 270.961 148.129L270.831 147.694L271.415 147.679Z"/><path fill="white" d="M271.946 189.419C289.467 189.559 306.989 189.547 324.51 189.383L324.467 194.298C325.272 204.025 325.01 220.272 324.473 230.039C306.827 230.166 289.181 230.196 271.535 230.129L271.691 193.977L267.173 193.969C269.969 192.813 267.562 193.129 269.721 192.087C270.346 192.409 270.818 192.662 271.428 193.026L271.943 193.339L272.476 192.639C272.789 190.425 272.943 191.463 271.946 189.419Z"/><path fill="#064789" d="M271.946 189.419C289.467 189.559 306.989 189.547 324.51 189.383L324.467 194.298C319.723 193.027 279.225 193.892 271.691 193.977L267.173 193.969C269.969 192.813 267.562 193.129 269.721 192.087C270.346 192.409 270.818 192.662 271.428 193.026L271.943 193.339L272.476 192.639C272.789 190.425 272.943 191.463 271.946 189.419Z"/><path fill="white" d="M275.255 69.6077C279.886 69.5135 284.678 69.3494 289.296 69.3653C291.653 69.4781 294.013 69.5262 296.373 69.5096C305.731 69.469 315.089 69.4792 324.447 69.5402C324.535 73.5435 325.732 103.542 323.93 105.076C323.86 105.135 323.768 105.161 323.687 105.203C306.475 105.172 288.849 105.633 271.713 105.342C271.415 95.0477 271.343 80.7487 271.722 70.5254C272.601 69.7181 273.802 69.8261 275.255 69.6077Z"/><path fill="#DFD3FD" d="M263.672 152.577L271.978 152.634L279.089 152.639L279.055 152.885L271.789 152.909C271.909 164.609 271.532 177.963 271.946 189.419C272.943 191.463 272.789 190.425 272.476 192.639L271.943 193.339L271.428 193.026C270.818 192.662 270.346 192.409 269.721 192.087C267.562 193.129 269.969 192.813 267.173 193.969L243.527 193.997L236.402 193.962L235.613 193.473L235.579 192.558C236.703 191.075 237.163 190.715 238.519 189.517C237.136 189.512 235.832 189.403 234.456 189.306C233.259 187.784 233.525 153.877 234.842 152.671L252.899 152.624C256.277 152.613 260.354 152.712 263.672 152.577Z"/><path fill="#0A3967" d="M249.822 189.521C256.74 189.329 265.051 189.219 271.946 189.419C272.943 191.463 272.789 190.425 272.476 192.639L271.943 193.339L271.428 193.026C270.818 192.662 270.346 192.409 269.721 192.087C267.562 193.129 269.969 192.813 267.173 193.969L243.527 193.997C242.753 193.207 242.8 192.984 242.287 191.921C244.164 189.507 247.642 191.273 249.822 189.521Z"/><path fill="#002B68" d="M238.519 189.517C241.227 189.485 247.403 189.259 249.822 189.521C247.642 191.273 244.164 189.507 242.287 191.921C242.8 192.984 242.753 193.207 243.527 193.997L236.402 193.962L235.613 193.473L235.579 192.558C236.703 191.075 237.163 190.715 238.519 189.517Z"/><path fill="#DFD3FD" d="M250.025 109.88L271.527 109.943L271.415 147.679L270.831 147.694C261.564 146.992 243.624 147.526 233.782 147.53C233.205 136.825 233.805 121.054 233.847 109.927L250.025 109.88Z"/><path fill="#DFD3FD" d="M260.435 28.8763L271.661 28.9778L271.588 65.2491C262.226 64.5203 243.597 65.0539 233.587 65.0442C233.377 53.1822 233.552 40.8303 233.602 28.9468L260.435 28.8763Z"/><path fill="#DFD3FD" d="M267.173 193.969L271.691 193.977L271.535 230.129C259.027 230.342 246.518 230.427 234.009 230.383C233.99 225.909 233.45 196.029 234.595 194.209L236.402 193.962L243.527 193.997L267.173 193.969Z"/><path fill="#DFD3FD" d="M233.813 69.8943C247.627 69.878 261.441 69.7824 275.255 69.6077C273.802 69.8261 272.601 69.7181 271.722 70.5254C271.343 80.7487 271.415 95.0477 271.713 105.342C261.885 105.222 252.056 105.256 242.229 105.441L233.827 105.188L233.813 69.8943Z"/><path fill="#DFD3FD" d="M233.843 0L271.698 0C271.686 8.12787 271.568 16.5122 271.714 24.618L272.5 24.8986C272.283 25.8565 272.161 27.4833 271.504 27.7984C268.464 29.2582 264.119 28.119 260.261 28.4539C253.337 27.9021 242.597 28.5688 234.877 28.2314C233.889 27.4241 234.164 26.5533 233.966 24.8087C233.16 22.5918 233.767 3.78167 233.843 0Z"/><path fill="#002B68" d="M271.714 24.618L272.5 24.8986C272.283 25.8565 272.161 27.4833 271.504 27.7984C268.464 29.2582 264.119 28.119 260.261 28.4539C253.337 27.9021 242.597 28.5688 234.877 28.2314C233.889 27.4241 234.164 26.5533 233.966 24.8087L271.714 24.618Z"/><path fill="#0A3967" d="M234.842 152.671C234.589 152.442 233.962 151.731 233.709 151.456C233.662 149.61 233.361 150.382 234.621 149.055C239.119 147.441 247.205 148.026 252.221 148.119L265.261 148.155L270.961 148.129C271.669 149.928 271.7 150.689 271.978 152.634L263.672 152.577C260.354 152.712 256.277 152.613 252.899 152.624L234.842 152.671Z"/><path fill="#002B68" d="M270.961 148.129C271.669 149.928 271.7 150.689 271.978 152.634L263.672 152.577C265.611 151.97 266.897 151.723 267.799 149.801C266.989 148.411 267.222 148.848 265.261 148.155L270.961 148.129Z"/><path fill="#0A3967" d="M242.042 106.032C243.907 106.352 244.323 106.74 245.878 106.203C248.965 106.252 249.104 105.757 250.639 108.621L252.143 109.261L250.121 109.621L244.836 109.66C241.231 109.657 238.817 110.05 235.693 108.301L235.634 107.548C237.36 106.372 239.933 106.253 242.042 106.032Z"/><path fill="#0A3967" d="M161.19 191.629C162.904 194.56 160.081 198.311 163.273 198.449C164.102 198.485 165.671 198.938 166.256 199.541C163.926 201.774 161.651 199.118 161.612 202.527C161.593 204.214 162.06 207.749 161.185 208.873C160.953 203.88 161.181 196.776 161.19 191.629Z"/><path fill="#0A3967" d="M192.257 117L193.497 116.874C196.33 119.398 193.134 122.972 191.646 125.475L191.262 125.146C190.912 123.468 191.348 124.101 190.288 122.987L188.304 123.202L187.475 121.975C188.025 119.005 190.267 119.183 192.257 117Z"/><path fill="#0A3967" d="M222.542 113.984C224.433 113.981 225.156 114.073 225.733 115.816C225.18 117.845 224.806 117.949 223.088 119.367C222.702 119.619 222.987 119.474 222.137 119.497C220.356 117.796 220.882 118.774 220.272 116.591C220.777 114.811 220.658 115.353 222.542 113.984Z"/><path fill="#064789" d="M192.407 110.141C195.112 112.36 192.543 110.49 197.039 110.289C195.105 111.559 194.191 112.078 193.777 114.516C193.841 114.812 193.82 114.577 193.707 115.451C191.438 113.757 190.486 114.919 189.164 112.409C190.282 110.726 190.245 111.15 192.407 110.141Z"/><path fill="#0A3967" d="M193.138 0.113386C194.536 0.496797 195.247 0.715506 196.635 1.24953L196.627 2.22772C195.265 3.65316 195.274 3.81081 194.984 5.76905L193.863 3.88924C193.34 3.91869 192.817 3.94813 192.294 3.97757C192.747 2.41212 192.872 1.73603 193.138 0.113386Z"/><path fill="#064789" d="M195.979 186.797L196.399 186.665L196.867 186.985C197.715 189.098 198.716 189.765 198.489 191.416L196.844 192.463L196.621 193.194L196.127 193.043C196.562 189.448 196.133 189.909 195.979 186.797Z"/><path fill="#064789" d="M182.159 146.366L182.682 146.896C181.8 148.324 181.241 148.962 180.183 150.221L179.59 149.686C179.977 147.987 180.65 147.852 182.159 146.366Z"/><path fill="#064789" d="M204.124 153.691L204.687 153.578C205.346 155.111 204.992 155.883 204.811 157.728C203.997 156.229 203.433 155.224 204.124 153.691Z"/><path fill="#064789" d="M229.213 121.847L229.498 122.681C228.969 124.623 229.083 124.059 227.484 125.686C227.196 123.742 227.578 124.067 229.213 121.847Z"/><path fill="#002B5E" d="M415.988 0L486.968 0C486.875 13.789 486.521 28.6804 486.902 42.3782L486.857 73.9635L486.916 79.0429C486.629 116.05 486.657 153.059 486.998 190.066L486.907 237.971C481.951 238.479 468.635 238.118 463.048 238.107C447.365 238.031 431.683 238.06 416 238.194L415.988 0Z"/><path fill="#0A3967" d="M433.612 148.724L434.802 149.154L434.549 149.953L434.286 150.752C436.213 151.824 439.157 153.448 440.145 155.395L439.846 156.154L438.434 156.623C436.399 155.802 436.554 156.765 434.868 155.724L434.43 156.487L433.862 156.278L434.284 155.813C432.833 155.735 432.917 155.795 431.692 155.034C429.81 152.025 430.626 150.466 433.612 148.724Z"/><path fill="#0A3967" d="M449.541 79.2963L449.77 79.3832C450.777 81.0339 451.118 80.1324 452.021 82.0011C451.135 83.8957 449.519 84.5133 447.809 85.7092C446.616 86.065 446.567 85.9042 445.331 85.5422L444.967 84.75C445.537 82.4225 447.612 80.5691 449.541 79.2963Z"/><path fill="#0A3967" d="M432.903 79.4246C434.571 79.1774 435.197 80.8833 435.151 82.2896C432.727 84.1894 432.215 81.6387 429.005 84.59C428.862 84.8492 428.995 84.6596 428.376 85.2596C428.193 83.478 428.148 82.6544 428.157 80.8663C429.67 78.6844 429.53 81.4228 432.903 79.4246Z"/><path fill="#0A3967" d="M466.504 210.761C470.504 210.951 469.651 214.047 471.885 216.285C475.729 220.137 457.704 199.294 472.959 217.316L472.308 217.791C471.326 217.394 464.811 213.031 464.319 212.47L466.504 210.761Z"/><path fill="#0A3967" d="M458.419 95.4512L458.843 95.5238L459.14 96.607C460.368 97.2213 460.592 97.4028 461.735 98.1539C462.021 99.7446 460.449 98.5536 459.625 101.354C459.355 101.542 459.086 101.729 458.817 101.917C457.355 99.9708 456.647 99.8027 456.721 97.9494C457.89 97.0185 457.932 96.8647 458.419 95.4512Z"/><path fill="#0A3967" d="M436.647 122.682C438.255 123.532 438.802 124.119 439.801 125.516L439.549 127.018C437.598 126.064 437.586 124.877 436.647 122.682Z"/><path d="M431.122 232.257C431.395 232.161 432.43 232.008 432.759 231.952L433.283 232.709L431.743 233.043L431.122 232.257Z"/><path fill="white" d="M79.9975 0L151.156 0L151.831 70.4931C151.91 77.4444 152.639 96.3823 152.048 102.491L96.5322 102.611C91.9637 102.336 84.3856 102.586 79.6225 102.605C80.1335 90.4873 79.8735 77.3942 79.9077 65.1727L79.9975 0Z"/><path fill="white" d="M334.505 0L405.321 0C405.337 8.27708 404.878 98.9749 405.904 101.703C402.255 102.339 387.538 102.057 383.074 102.052L334.162 101.985C334.923 99.0769 334.573 75.694 334.565 71.6945L334.505 0Z"/><path fill="white" d="M0.451727 152.193C5.312 152.392 10.0062 152.368 14.8626 152.354L21.1933 152.377C28.5276 152.425 36.0226 152.551 43.3394 152.358C51.6745 152.46 60.9344 152.182 69.0791 152.513L69.0486 188.571L69.0401 193.454C69.0791 200.755 69.1347 208.049 69.206 215.349C69.2488 219.733 69.6663 225.012 69.2985 229.294C68.2762 229.791 68.6752 229.719 67.5842 229.8C50.1009 230.098 32.1616 229.927 14.6435 229.957L0 229.976L0 193.417L0 188.369L0 152.427L0.451727 152.193Z"/><path fill="white" d="M0.451727 152.193C5.312 152.392 10.0062 152.368 14.8626 152.354L21.1933 152.377C28.5276 152.425 36.0226 152.551 43.3394 152.358C51.6745 152.46 60.9344 152.182 69.0791 152.513L69.0486 188.571C51.3275 188.862 32.451 188.511 14.6758 188.419C9.9854 188.243 4.73365 188.364 0 188.369L0 152.427L0.451727 152.193Z"/><path fill="#DFD3FD" d="M0.451727 152.193C5.312 152.392 10.0062 152.368 14.8626 152.354C14.8937 161.602 15.4541 179.78 14.6758 188.419C9.9854 188.243 4.73365 188.364 0 188.369L0 152.427L0.451727 152.193Z"/><path fill="#DFD3FD" d="M0 193.417C4.52005 193.431 10.2129 193.608 14.6401 193.364L14.6435 229.957L0 229.976L0 193.417Z"/><path fill="#0A3967" d="M0 188.369C4.73365 188.364 9.9854 188.243 14.6758 188.419C32.451 188.511 51.3275 188.862 69.0486 188.571L69.0401 193.454C51.5179 193.44 32.0247 192.552 14.6401 193.364C10.2129 193.608 4.52005 193.431 0 193.417L0 188.369Z"/><path fill="white" d="M0 0L69.1673 0C69.162 20.6513 69.7487 44.5848 69.1141 65.0319L0 65.0555L0 0Z"/><path fill="white" d="M15.0849 104.931C21.9246 105.022 28.7651 105.04 35.6052 104.984L64.004 105.062L69.0529 105.005L69.0643 109.033C69.1228 114.041 69.868 145.599 68.629 147.609L65.1735 147.634L65.1598 148.143L64.7409 152.188C60.9691 152.026 56.6538 152.136 52.8396 152.144C50.0398 152.169 46.0082 152.096 43.3394 152.358C36.0226 152.551 28.5276 152.425 21.1933 152.377L14.8626 152.354C10.0062 152.368 5.312 152.392 0.451727 152.193L0 152.427L0 148.477L0 148.164L0 147.599L0 108.935L0 105C3.85722 105.005 10.7326 104.797 14.3494 105.103L15.0849 104.931Z"/><path fill="#DFD3FD" d="M0 105C3.85722 105.005 10.7326 104.797 14.3494 105.103L17.8374 105.891C18.2292 106.609 18.3982 106.875 18.6944 107.638C16.9652 108.239 16.3896 108.384 14.5872 108.752C14.5867 121.623 14.4499 134.766 14.622 147.615L0 147.599L0 108.935L0 105Z"/><path fill="#002B68" d="M0 105C3.85722 105.005 10.7326 104.797 14.3494 105.103L17.8374 105.891C18.2292 106.609 18.3982 106.875 18.6944 107.638C16.9652 108.239 16.3896 108.384 14.5872 108.752C11.516 109.102 3.43811 108.918 0 108.935L0 105Z"/><path fill="#0A3967" d="M14.622 147.615L22.7024 147.649L65.1735 147.634L65.1598 148.143L64.7409 152.188C60.9691 152.026 56.6538 152.136 52.8396 152.144C50.0398 152.169 46.0082 152.096 43.3394 152.358C36.0226 152.551 28.5276 152.425 21.1933 152.377L14.8626 152.354C10.0062 152.368 5.312 152.392 0.451727 152.193L0 152.427L0 148.477L0 148.164L0 147.599L14.622 147.615Z"/><path fill="#002B68" d="M0 148.164C4.27438 148.151 13.8913 147.68 17.4142 149.342L17.6418 150.236C16.7637 151.417 16.2915 151.737 14.8626 152.354C10.0062 152.368 5.312 152.392 0.451727 152.193L0 152.427L0 148.477L0 148.164Z"/><path fill="#0A3967" d="M0 148.477C1.77238 148.66 2.42567 148.54 3.70049 149.764L3.72197 150.77C2.25786 152.118 2.66825 151.702 0.451727 152.193L0 152.427L0 148.477Z"/><path fill="#0A3967" d="M15.0849 104.931C21.9246 105.022 28.7651 105.04 35.6052 104.984L64.004 105.062L69.0529 105.005L69.0643 109.033L65.3502 108.854C56.9645 109.264 36.3 109.784 28.4986 108.638C25.1408 108.978 22.5679 108.915 19.1984 108.87C18.0316 108.957 15.8445 108.804 14.5872 108.752C16.3896 108.384 16.9652 108.239 18.6944 107.638C18.3982 106.875 18.2292 106.609 17.8374 105.891L14.3494 105.103L15.0849 104.931Z"/><path fill="#064789" d="M64.004 105.062L69.0529 105.005L69.0643 109.033L65.3502 108.854C64.4766 108.334 63.9196 108.877 62.5728 107.901C62.6823 106.352 62.9224 106.534 64.004 105.062Z"/><path fill="#002B5E" d="M18.6944 107.638C19.6131 105.37 19.9293 104.985 22.6845 105.459L23.6228 106.197C23.373 108.716 21.4106 108.539 19.1984 108.87C18.0316 108.957 15.8445 108.804 14.5872 108.752C16.3896 108.384 16.9652 108.239 18.6944 107.638Z"/><path fill="white" d="M58.5363 65.3836C60.6225 65.354 62.7078 65.297 64.7876 65.1618C69.0732 64.8833 69.0007 66.4339 69.0207 69.8843C69.5639 75.1691 69.6677 99.5331 69.0529 105.005L64.004 105.062L35.6052 104.984C28.7651 105.04 21.9246 105.022 15.0849 104.931L14.3494 105.103C10.7326 104.797 3.85722 105.005 0 105L0 69.9468C4.9775 69.92 10.3773 69.9869 15.3229 69.8589L19.2016 69.7346L31.578 69.7294C36.1986 69.7699 41.0635 69.9151 45.6509 69.566C47.0345 69.1823 49.1085 69.2616 50.6306 69.2314L51.2386 68.4511L50.8523 65.3889L58.5363 65.3836Z"/><path fill="#DFD3FD" d="M0 69.9468C4.9775 69.92 10.3773 69.9869 15.3229 69.8589C15.0756 80.9838 14.7982 93.8259 15.0849 104.931L14.3494 105.103C10.7326 104.797 3.85722 105.005 0 105L0 69.9468Z"/><path fill="#0A3967" d="M58.5363 65.3836C60.6225 65.354 62.7078 65.297 64.7876 65.1618C69.0732 64.8833 69.0007 66.4339 69.0207 69.8843L61.2992 69.8419C59.2991 69.3751 58.558 69.6348 57.7644 68.3807L58.5363 65.3836Z"/><path fill="#064789" d="M50.8523 65.3889L58.5363 65.3836L57.7644 68.3807C58.558 69.6348 59.2991 69.3751 61.2992 69.8419C58.0244 69.8537 48.3529 70.0677 45.6509 69.566C47.0345 69.1823 49.1085 69.2616 50.6306 69.2314L51.2386 68.4511L50.8523 65.3889Z"/><path fill="white" d="M282 147.91L288.285 147.839C291.399 147.854 294.649 147.919 297.75 147.874C303.535 147.945 319.237 147.498 324.068 148.084C324.886 149.401 324.619 150.941 324.588 152.576C324.751 163.679 325.04 178.412 324.51 189.383C306.989 189.547 289.467 189.559 271.946 189.419C271.532 177.963 271.909 164.609 271.789 152.909L279.055 152.885L279.089 152.639C279.927 150.826 280.986 149.734 282 147.91Z"/><path fill="#0A3967" d="M288.285 147.839C291.399 147.854 294.649 147.919 297.75 147.874C303.535 147.945 319.237 147.498 324.068 148.084C324.886 149.401 324.619 150.941 324.588 152.576C314.217 152.346 302.678 153.109 292.607 152.578C290.515 152.304 289.734 152.657 287.619 151.922C287.087 150.183 287.575 149.997 288.285 147.839Z"/><path fill="#0A3967" d="M282 147.91L288.285 147.839C287.575 149.997 287.087 150.183 287.619 151.922C289.734 152.657 290.515 152.304 292.607 152.578C287.97 152.866 283.688 152.872 279.055 152.885L279.089 152.639C279.927 150.826 280.986 149.734 282 147.91Z"/><path fill="#002B68" d="M96.5322 102.611L152.048 102.491L152.168 111.906L79.1009 111.998C79.0307 109.001 79.1654 105.924 79.2477 102.92C84.9315 102.929 90.886 103.065 96.5322 102.611Z"/><path fill="#002B68" d="M405.904 101.703L406.898 102.045C408.127 103.513 407.634 108.29 407.559 110.414C383.516 109.915 357.756 110.39 333.611 110.485C333.551 108.237 333.306 103.961 334.162 101.985L383.074 102.052C387.538 102.057 402.255 102.339 405.904 101.703Z"/><path fill="#002B68" d="M14.6435 229.957C32.1616 229.927 50.1009 230.098 67.5842 229.8L68.9738 230.158C69.9008 231.815 69.4721 234.367 69.4137 236.446C46.3598 235.862 23.0899 236.339 0 236.018L0 229.976L14.6435 229.957Z"/><path fill="#0A3967" d="M31.2689 65.4115L50.8523 65.3889L51.2386 68.4511L50.6306 69.2314C49.1085 69.2616 47.0345 69.1823 45.6509 69.566C41.0635 69.9151 36.1986 69.7699 31.578 69.7294L19.2016 69.7346L15.3229 69.8589C10.3773 69.9869 4.9775 69.92 0 69.9468L0 65.3704L10.9475 65.4206L31.2689 65.4115Z"/><path fill="#0A3967" d="M65.1735 147.634L68.629 147.609C69.3603 148.89 69.2314 148.978 69.3107 150.492C67.8806 152.693 67.2839 152.339 64.7409 152.188L65.1598 148.143L65.1735 147.634Z"/><path fill="white" d="M79.9874 119.999C103.542 119.717 127.888 120.05 151.542 119.989L151.425 237.218C127.581 237.372 103.736 237.348 79.8929 237.147L79.9874 119.999Z"/><path fill="white" d="M334.809 118.454C356.833 117.684 383.081 118.606 405.559 118.565L405.743 177.75C405.549 197.285 405.547 216.82 405.737 236.354C382.421 235.754 358.065 236.046 334.676 236.103C335.171 197.069 334.873 157.521 334.809 118.454Z"/><path fill="#EBF2FA" d="M1012.17 0L1024 0L1024 182.244L1024 267.319L1024 275.607L1024 398.666L1024 513.782C1011.42 499.763 1001.4 491.035 982.761 485.417C960.403 478.678 934.628 482.617 914.309 493.825C880.139 447.27 840.129 352.392 829.128 294.987C835.555 278.77 841.097 262.147 847.969 246.113C871.896 190.285 905.825 127.081 942.806 78.8712C964.12 51.0849 988.127 25.4028 1012.17 0Z"/><path fill="#0A3967" d="M960.727 69.9465C961.224 68.4869 961.16 68.2155 962.36 67.2469C963.93 67.6777 963.198 67.257 964.292 69.0948L964.995 68.9327C989.393 88.0047 1008.57 130.065 1017.6 159.064C1019.95 166.59 1021.66 175.469 1024 182.244L1024 267.319L1024 275.607L1024 398.666C984.842 358.308 950.955 308.154 936.175 253.377C923.205 205.306 922.994 150.093 942.527 103.706C947.876 91.0027 953.969 81.728 960.727 69.9465Z"/><path fill="#0A3967" d="M964.292 69.0948L964.995 68.9327C989.393 88.0047 1008.57 130.065 1017.6 159.064C1019.95 166.59 1021.66 175.469 1024 182.244L1024 267.319C1020.38 260.918 1014.72 246.94 1011.66 239.707C988.698 185.075 972.782 127.744 964.292 69.0948Z"/><path fill="white" d="M960.727 69.9465C961.224 68.4869 961.16 68.2155 962.36 67.2469C963.93 67.6777 963.198 67.257 964.292 69.0948C972.782 127.744 988.698 185.075 1011.66 239.707C1014.72 246.94 1020.38 260.918 1024 267.319L1024 275.607C1022.95 274.045 1019.75 266.699 1018.77 264.578C1012.4 250.814 1006.94 236.437 1001.34 222.328C995.719 242.179 995.505 272.359 997.346 292.888C998.098 301.277 999.8 308.953 1000.66 317.004C999.745 318.09 1000.29 317.695 998.874 318.024C995.964 316.534 995.397 307.902 995.028 304.704C991.692 275.801 991.496 244.837 999.19 216.589C997.155 209.656 993.562 200.419 991.133 193.342C984.906 175.195 979.756 158.479 974.807 140.025C967.311 160.138 963.803 180.301 962.456 201.65C962.093 207.4 962.484 229.561 961.373 231.846L959.91 232.267C959.436 232.12 958.301 231.954 958.279 231.448C956.996 202.093 962.099 161.186 973.385 134.809C970.726 123.967 968.051 113.454 965.993 102.475C963.983 91.7556 962.801 80.5584 960.727 69.9465Z"/><path fill="#064789" d="M563.658 353.967C562.047 350.155 560.478 346.421 559.106 342.508C543.93 299.241 566.979 253.465 608.484 235.933C626.191 228.454 643.629 228.429 661.383 235.73C680.312 242.67 701.16 257.239 709.829 276.077C712.127 280.863 714.421 285.058 716.353 290.036C725.944 323.26 716.879 348.14 694.147 372.809C676.536 388.819 659.427 390.118 638.139 395.721C632.699 395.112 629.412 395.583 623.393 394.284C619.575 393.645 615.515 392.753 611.699 391.987C613.104 395.685 614.499 399.487 615.363 403.358C616.026 406.33 617.852 417.623 618.416 419.355C620.527 456.407 605.855 485.771 573.144 504.22C584.202 526.943 587.834 548.268 579.329 572.87C572.196 594.189 556.822 611.763 536.642 621.67C521.648 628.89 500.105 632.071 484.005 627.347C461.43 622.672 442.752 610.743 430.243 591.181C417.801 571.604 413.71 547.862 418.883 525.25C424.667 499.235 438.257 483.234 460.142 469.274C457.916 465.457 456.276 462.389 454.586 458.273C446.097 437.667 446.298 414.505 455.143 394.05C466.744 366.818 495.005 346.426 524.727 345.324C539.517 344.775 550.358 348.171 563.658 353.967Z"/><path fill="#427AA1" d="M581.779 376.921C591.058 384.168 600.112 389.561 611.699 391.987C613.104 395.685 614.499 399.487 615.363 403.358C616.026 406.33 617.852 417.623 618.416 419.355C620.527 456.407 605.855 485.771 573.144 504.22C584.202 526.943 587.834 548.268 579.329 572.87C572.196 594.189 556.822 611.763 536.642 621.67C521.648 628.89 500.105 632.071 484.005 627.347C485.453 626.536 488.12 625.745 489.801 625.059C540.791 604.262 576.199 533.879 544.952 483.894C544.055 482.458 534.795 475.349 532.952 473.857C535.726 473.133 538.458 472.259 541.136 471.238C558.149 464.592 574.647 449.655 581.666 432.64C590.024 412.383 589.693 396.924 581.779 376.921Z"/><path fill="#427AA1" d="M661.383 235.73C680.312 242.67 701.16 257.239 709.829 276.077C712.127 280.863 714.421 285.058 716.353 290.036C725.944 323.26 716.879 348.14 694.147 372.809C676.536 388.819 659.427 390.118 638.139 395.721C632.699 395.112 629.412 395.583 623.393 394.284C627.12 392.521 632.3 391.092 636.383 389.459C692.953 366.834 711.721 273.836 661.383 235.73Z"/><path fill="white" d="M593.688 319.612C613.911 318.092 632.243 354.432 610.756 364.155C591.11 364.189 570.955 327.149 593.688 319.612Z"/><path fill="#3B52A3" d="M595.582 329.445C602.846 331.366 605.594 339.664 597.296 343.685C594.773 343.474 592.493 341.953 591.307 339.714C590.38 337.929 590.222 335.844 590.868 333.939C591.756 331.276 593.201 330.588 595.582 329.445Z"/><path fill="white" d="M455.89 547.1C476.802 548.589 482.426 582.422 463.372 587.023C446.57 584.136 433.278 551.483 455.89 547.1Z"/><path fill="#3B52A3" d="M455.115 553.894C462.37 554.281 465.666 564.365 457.333 568.158C449.44 566.891 447.711 558.227 455.115 553.894Z"/><path fill="white" d="M482.789 425.565C499.669 424.385 507.837 452.393 501.398 460.228C499.478 461.299 494.455 460.707 491.979 460.587C487.316 460.573 483.686 461.139 479.066 461.807C470.367 451.217 466.323 431.557 482.789 425.565Z"/><path fill="#3B52A3" d="M482.177 434.49C489.713 433.677 493.123 443.003 486.153 447.714C478.665 449.446 475.544 439.905 482.177 434.49Z"/><path fill="white" d="M515.927 356.048C518.651 355.802 521.948 355.997 520.915 359.622C517.916 362.907 506.401 367.389 501.162 370.28C500.707 370.488 499.331 371.152 498.905 370.923C488.744 365.46 512.745 357.198 515.927 356.048Z"/><path fill="white" d="M482.356 471.956C484.005 472.191 483.919 472.28 485.296 473.282C485.561 474.088 485.918 474.61 485.636 475.291C483.925 479.425 469.69 486.326 465.689 488.367C462.498 488.487 461.708 484.712 463.781 482.867C468.711 478.479 476.396 474.626 482.356 471.956Z"/><path fill="white" d="M614.465 245.492C616.355 246.015 616.887 246.514 617.716 248.166C616.912 252.4 604.247 258.184 599.274 261.603C585.488 257.549 611.443 246.635 614.465 245.492Z"/><path fill="white" d="M584.232 270.802C594.842 271.439 583.127 285.757 579.913 288.879C578.545 289.06 578.119 288.714 576.822 288.18C573.69 283.967 581.178 273.978 584.232 270.802Z"/><path fill="white" d="M450.264 495.902C461.905 495.843 449.279 509.41 446.316 512.691C446.238 512.723 446.161 512.755 446.083 512.786C434.463 513.738 448.791 497.654 450.264 495.902Z"/><path fill="white" d="M484.807 377.271C486.995 378.042 487.728 378.266 488.508 380.517C487.769 385.252 482.895 389.901 479.532 393.364C479.033 393.213 476.99 392.556 476.728 392.349C472.404 388.939 482.914 379.145 484.807 377.271Z"/><path fill="#00A6F4" d="M486.968 0L688.142 0L688.075 189.939L486.998 190.066C486.657 153.059 486.629 116.05 486.916 79.0429L486.857 73.9635L486.902 42.3782C486.521 28.6804 486.875 13.789 486.968 0Z"/><path fill="#DFD3FD" d="M486.902 42.3782C494.774 42.2755 502.646 42.2323 510.518 42.2487L510.534 73.9816L486.857 73.9635L486.902 42.3782Z"/><path fill="white" d="M486.857 73.9635L510.534 73.9816C510.555 75.6902 510.794 77.3117 510.032 78.7684C506.026 79.4053 491.76 79.0595 486.916 79.0429L486.857 73.9635Z"/><path fill="#DFD3FD" d="M503.802 116.028L537.154 116.019C537.278 123.827 536.718 144.26 537.409 150.88C537.393 152.716 537.589 154.072 536.729 155.659C533.785 156.167 526.071 155.92 522.752 155.913L497.809 155.94C497.642 142.827 497.844 129.253 497.816 116.089L503.802 116.028Z"/><path fill="white" d="M497.816 116.089L503.802 116.028L503.827 149.925C508.494 149.901 535.11 149.253 537.26 150.608L537.409 150.88C537.393 152.716 537.589 154.072 536.729 155.659C533.785 156.167 526.071 155.92 522.752 155.913L497.809 155.94C497.642 142.827 497.844 129.253 497.816 116.089Z"/><path fill="#DFD3FD" d="M566.826 115.997C577.83 116.004 589.044 115.898 600.031 116.023L600.006 149.869L600.012 155.872L560.865 155.878L560.865 116.055L566.826 115.997Z"/><path fill="white" d="M560.865 116.055L566.826 115.997C566.802 125.951 567.244 140.509 566.519 149.897C575.015 149.834 592.151 149.269 600.006 149.869L600.012 155.872L560.865 155.878L560.865 116.055Z"/><path fill="#DFD3FD" d="M629.07 116.014L661.968 116.017L661.997 149.925C662.067 152.041 662.314 153.279 661.543 155.18C658.887 155.879 628.385 155.521 623.455 155.503L623.415 130.405C623.411 126.761 623.188 119.874 623.755 116.52C625.399 115.761 627.221 115.984 629.07 116.014Z"/><path fill="white" d="M623.455 155.503L623.415 130.405C623.411 126.761 623.188 119.874 623.755 116.52C625.399 115.761 627.221 115.984 629.07 116.014C629.061 127.08 629.255 138.898 629.007 149.902C639.468 149.881 651.678 149.565 661.997 149.925C662.067 152.041 662.314 153.279 661.543 155.18C658.887 155.879 628.385 155.521 623.455 155.503Z"/><path fill="#DFD3FD" d="M600.116 42.4939C610.597 42.4399 622.21 42.1319 632.603 42.4535L632.501 74.0181C632.564 76.1959 632.68 76.781 632.136 78.8387C628.811 79.7743 599.939 79.4988 594.489 79.5096L594.45 56.6588C594.446 53.0091 594.211 46.3794 594.852 43.0974C596.391 42.243 598.293 42.4785 600.116 42.4939Z"/><path fill="white" d="M594.489 79.5096L594.45 56.6588C594.446 53.0091 594.211 46.3794 594.852 43.0974C596.391 42.243 598.293 42.4785 600.116 42.4939L600.032 73.9979C610.617 73.9951 621.979 73.7938 632.501 74.0181C632.564 76.1959 632.68 76.781 632.136 78.8387C628.811 79.7743 599.939 79.4988 594.489 79.5096Z"/><path fill="#DFD3FD" d="M538.975 42.386C548.501 42.2837 561.286 41.9445 570.734 42.3765C570.604 52.9281 570.564 63.4806 570.616 74.0328L570.8 79.0358C558.263 79.2783 545.547 79.2995 533.001 79.3635C532.982 74.364 532.557 46.4068 533.367 43.0228C535.2 42.1629 536.906 42.3832 538.975 42.386Z"/><path fill="white" d="M533.001 79.3635C532.982 74.364 532.557 46.4068 533.367 43.0228C535.2 42.1629 536.906 42.3832 538.975 42.386C539.035 52.9229 539.026 63.4601 538.947 73.9968L570.616 74.0328L570.8 79.0358C558.263 79.2783 545.547 79.2995 533.001 79.3635Z"/><path fill="#064789" d="M670.195 569.333C667.256 566.742 664.386 564.202 661.746 561.295C615.691 510.58 661.783 423.174 728.344 426.575C732.702 428.835 737.531 430.059 741.973 432.554C795.736 462.752 775.234 547.574 727.991 573.758C724.693 575.586 721.226 577.145 717.697 578.311C710.433 580.639 702.801 581.598 695.187 581.14C700.429 589.814 705.857 598.665 708.347 608.643C717.945 647.094 696.233 692.286 663.281 712.826C652.355 719.636 634.386 725.091 621.473 723.463C611.179 719.865 596.968 706.702 590.732 697.657C578.49 679.517 573.955 657.256 578.126 635.772C585.882 594.425 627.883 561.253 670.195 569.333Z"/><path fill="white" d="M645.785 680.204C656.981 679.148 669.584 687.303 661.342 699.43C656.287 706.866 646.854 709.188 638.383 710.465C605.716 711.393 617.836 682.527 645.785 680.204Z"/><path fill="#3B52A3" d="M638.146 687.519C641.713 687.399 644.268 687.411 646.472 690.51C647.019 694.355 644.514 695.053 641.458 696.473C637.692 696.677 634.807 697.108 632.658 693.459C632.19 689.732 635.272 688.761 638.146 687.519Z"/><path fill="white" d="M712.302 535.651C722.82 534.229 735.717 542.128 728.317 553.982C723.922 561.022 716.8 563.417 709.146 565.13C682.431 566.517 682.358 540.363 712.302 535.651Z"/><path fill="#3B52A3" d="M704.482 543.545C707.91 543.243 711.619 542.831 712.262 547.095C711.136 550.208 709.945 550.402 706.857 551.923C703.762 552.187 701.326 552.292 699.469 549.405C699.114 545.579 701.409 544.96 704.482 543.545Z"/><path fill="white" d="M640.355 582.077L641.922 582.209C643.113 583.253 643.026 583.178 643.448 584.716C642.373 588.341 636.507 588.482 633.272 590.065C628.932 592.19 625.145 595.261 621.318 598.163C619.533 598.181 617.852 597.446 617.117 595.815C618.741 589.168 634.219 583.468 640.355 582.077Z"/><path fill="white" d="M704.455 443.475C706.217 443.428 706.549 443.719 708.109 444.479C710.479 448.837 695.456 455.204 691.822 457.591C690.259 457.456 689.4 457.032 688.388 455.917C688.063 450.269 700.076 445.353 704.455 443.475Z"/><path fill="white" d="M676.935 464.768C678.74 465.415 678.972 465.701 679.601 467.28C679.199 470.38 672.308 480.659 670.24 482.576C668.502 481.956 668.304 482.008 666.899 480.75C664.752 475.295 672.907 467.767 676.935 464.768Z"/><path fill="white" d="M606.893 604.901C609.07 605.159 609.763 605.109 610.586 607.074C610.256 610.243 604.431 618.899 602.495 622.468C600.901 622.723 600.175 622.581 598.916 621.728C596.684 617.428 603.784 607.926 606.893 604.901Z"/><path fill="#0A3967" d="M974.281 0L1012.17 0C988.127 25.4028 964.12 51.0849 942.806 78.8712C905.825 127.081 871.896 190.285 847.969 246.113C841.097 262.147 835.555 278.77 829.128 294.987C840.129 352.392 880.139 447.27 914.309 493.825C908.935 497.644 906.331 500.118 901.742 504.853C892.737 491.776 885.689 477.67 878.189 463.674C861.85 433.183 847.165 401.547 835.009 369.126C831.788 360.349 828.738 351.509 825.861 342.613C824.123 337.11 821.953 329.222 819.861 324.108L819.601 323.479C802.017 361.378 787.869 403.696 773.653 443.039C770.895 441.832 762.975 437.075 760.424 435.385C771.927 400.451 787.005 359.648 801.451 326.271C797.512 328.587 791.697 333.121 787.584 335.938C778.003 342.478 768.313 348.857 758.518 355.071C714.966 382.787 667.829 404.415 618.416 419.355C617.852 417.623 616.026 406.33 615.363 403.358C614.499 399.487 613.104 395.685 611.699 391.987C615.515 392.753 619.575 393.645 623.393 394.284C629.412 395.583 632.699 395.112 638.139 395.721C659.427 390.118 676.536 388.819 694.147 372.809C716.879 348.14 725.944 323.26 716.353 290.036C714.421 285.058 712.127 280.863 709.829 276.077C715.648 273.648 724.648 268.85 730.5 265.946C768.351 247.274 804.121 224.65 837.211 198.452C842.032 194.632 852.737 186.095 856.51 181.542C859.113 178.402 864.748 166.039 866.954 161.69C872.799 150.317 878.827 139.039 885.036 127.86C895.742 109.417 907.07 91.3428 919.001 73.6681C935.023 49.6247 955.039 21.4589 974.281 0Z"/><path fill="#EBF2FA" d="M716.353 290.036C751.607 275.303 785.076 254.676 816.704 233.346C826.083 227.02 835.684 218.451 844.161 212.829C832.744 240.368 822.451 268.36 813.308 296.735C805.069 303.33 795.342 311.514 786.878 317.555C761.367 335.764 733.907 352.994 705.946 367.167C703.157 368.58 696.787 372.407 694.147 372.809C716.879 348.14 725.944 323.26 716.353 290.036Z"/><path fill="#EBF2FA" d="M611.699 391.987C615.515 392.753 619.575 393.645 623.393 394.284C629.412 395.583 632.699 395.112 638.139 395.721C631.171 398.411 622.555 401.37 615.363 403.358C614.499 399.487 613.104 395.685 611.699 391.987Z"/><path fill="#00A6F4" d="M233.767 796.007C233.103 767.116 248.148 740.135 273.073 725.513C297.999 710.89 328.891 710.924 353.785 725.6C378.679 740.276 393.666 767.289 392.94 796.178C392.804 801.576 392.12 806.945 390.897 812.204C386.537 830.962 375.525 847.503 359.902 858.763C330.933 879.641 291.605 878.676 263.696 856.401C249.6 845.152 239.742 829.45 235.736 811.867C234.549 806.659 233.889 801.346 233.767 796.007Z"/><path fill="#69899E" d="M339.787 799.551C356.909 799.28 350.719 821.392 335.141 825.933C318.756 826.857 323.095 805.115 339.787 799.551Z"/><path fill="white" d="M294.515 726.971C300.116 733.14 290.753 735.635 286.32 738.49C284.169 739.875 281.023 741.256 278.686 742.422C277.429 742.047 277.432 741.889 276.433 740.988C274.718 735.487 290.138 729.116 294.515 726.971Z"/><path fill="white" d="M264.323 752.779C264.757 752.99 265.532 753.379 265.947 753.65C271.103 757.032 260.927 767.674 258.431 770.529C257.605 770.303 256.75 769.98 255.936 769.697C252.231 765.296 261.207 756.127 264.323 752.779Z"/><path fill="#064789" d="M857.182 725.053C849.445 725.147 841.725 724.309 834.188 722.556C812.076 717.069 793.083 702.953 781.453 683.362C770.241 664.724 766.9 642.393 772.166 621.289C777.4 600.384 790.743 582.424 809.246 571.377C829.128 559.749 854.097 555.562 876.463 561.475C876.405 568.31 876.909 572.424 878.177 579.162C881.701 598.129 896.543 618.963 912.599 629.378C923.347 636.35 928.873 638.814 941.095 642.241C939.47 668.072 930.446 686.934 911.202 704.421C897.461 716.907 875.714 725.055 857.182 725.053Z"/><path fill="#427AA1" d="M878.177 579.162C881.701 598.129 896.543 618.963 912.599 629.378C923.347 636.35 928.873 638.814 941.095 642.241C939.47 668.072 930.446 686.934 911.202 704.421C897.461 716.907 875.714 725.055 857.182 725.053C868.719 718.221 872.744 719.169 883.547 708.266C914.118 677.411 889.667 649.45 880.293 616.205C876.363 602.269 878.215 593.033 878.177 579.162Z"/><path fill="white" d="M867.776 669.168C893.035 667.586 887.076 699.443 857.563 703.752C829.702 704.588 839.795 672.579 867.776 669.168Z"/><path fill="#12519B" d="M860.353 677.518C863.122 677.369 865.818 677.417 867.336 680.102C868.102 685.003 862.514 687.38 858.918 688.818C855.639 689.18 853.366 689.32 851.729 686.15C851.585 681.094 856.338 678.905 860.353 677.518Z"/><path fill="white" d="M825.836 578.411C828.06 578.959 828.625 579.77 828.841 581.786C827.363 585.108 816.878 591.009 813.206 593.326C811.26 592.354 810.783 591.248 809.49 589.388C813.555 585.133 820.632 581.11 825.836 578.411Z"/><path fill="white" d="M800.864 599.055C802.165 599.349 802.364 599.455 803.621 599.93C806.649 603.715 799.11 612.414 796.472 615.736C794.861 615.638 794.974 615.647 793.561 614.848C791.085 610.745 797.726 601.605 800.864 599.055Z"/><path fill="#00A6F4" d="M914.309 493.825C934.628 482.617 960.403 478.678 982.761 485.417C1001.4 491.035 1011.42 499.763 1024 513.782L1024 607.073C1003.95 636.494 975.622 646.229 941.095 642.241C928.873 638.814 923.347 636.35 912.599 629.378C896.543 618.963 881.701 598.129 878.177 579.162C876.909 572.424 876.405 568.31 876.463 561.475C877.106 538.763 886.366 520.912 901.742 504.853C906.331 500.118 908.935 497.644 914.309 493.825Z"/><path fill="#69899E" d="M987.091 567.134C1006.15 565.095 1003.01 586.335 988.192 593.366C972.595 597.847 968.569 575.408 987.091 567.134Z"/><path fill="white" d="M941.942 496.073C943.434 496.001 943.641 496.341 944.917 497.162C945.779 498.764 945.645 497.935 945.315 499.738C943.2 502.398 930.273 507.182 925.796 509.337C923.951 508.916 921.851 506.842 923.021 505.288C926.524 500.636 936.855 497.538 941.942 496.073Z"/><path fill="white" d="M913.149 515.333C915.332 516.132 915.587 516.643 916.034 518.731C915.214 522.65 909.068 528.913 906.036 531.646C905.301 531.05 904.576 530.376 903.868 529.744C901.884 524.921 909.401 517.615 913.149 515.333Z"/><path fill="#427AA1" d="M728.344 426.575C739.227 427.4 750.907 429.739 760.424 435.385C762.975 437.075 770.895 441.832 773.653 443.039C790.268 454.85 801.253 475.195 804.698 495.033C808.493 517.381 803.337 540.325 790.344 558.9C779.126 575.066 761.949 586.117 742.588 589.627C734.45 591.033 726.91 590.651 718.761 589.775C736.166 608.383 745.773 626.931 745.156 653.23C744.657 674.478 733.837 697.006 718.228 711.379C701.959 726.534 680.294 734.537 658.08 733.596C646.582 733.053 631.506 729.233 621.473 723.463C634.386 725.091 652.355 719.636 663.281 712.826C696.233 692.286 717.945 647.094 708.347 608.643C705.857 598.665 700.429 589.814 695.187 581.14C702.801 581.598 710.433 580.639 717.697 578.311C721.226 577.145 724.693 575.586 727.991 573.758C775.234 547.574 795.736 462.752 741.973 432.554C737.531 430.059 732.702 428.835 728.344 426.575Z"/></svg>