<?xml version="1.0" encoding="utf-8" ?><svg xmlns="http://www.w3.org/2000/svg" xmlns:xlink="http://www.w3.org/1999/xlink" width="1024" height="1024" viewBox="0 0 1024 1024"><path fill="#C93BC2" transform="scale(2 2)" d="M337.58 118.049C339.281 110.239 351.648 111.503 353.044 118.656L353.197 119.327C355.862 119.128 370.02 119.665 371.22 119.214L371.667 118.049C372.011 115.047 372.515 114.769 374.989 113.247C386.328 113.094 397.914 113.244 409.256 113.334C424.53 113.456 435.371 129.091 435.506 143.643L435.5 294.803C435.554 328.5 430.32 336.553 395.966 336.738C384.888 336.798 373.619 336.581 362.506 336.733C353.47 336.234 335.754 340.677 332.559 331.928C308.072 331.843 314.377 329.692 295 341.71C286.225 347.153 265.677 353.308 255.721 349.534C251.765 350.074 250.454 349.897 246.47 349.534L245.581 349.498C229.942 348.871 214.128 341.303 203.551 329.817C195.489 334.407 173.039 344.913 163.95 343.798C149.529 350.842 129.002 350.868 114.029 346.07C107.899 344.105 93.9577 337.175 90.9459 331.228C90.7719 329.124 90.641 328.551 90.9459 326.452C88.6273 323.241 83.9689 316.282 82.8172 312.903C75.8482 313.762 72.9664 305.384 78.3946 302.108C77.9075 299.982 76.063 290.905 76.4058 289.213C77.5785 289.473 80.0256 291.715 80.6333 291.703C93.074 291.466 84.7744 259.658 106.235 248.109C107.399 246.514 109.251 244.822 110.728 243.531C108.064 237.494 109.848 232.592 117.056 234.23C119.695 234.83 119.385 239.404 121.286 240.046C131.432 234.195 146.311 231.803 157.537 235.523C157.981 234.445 158.129 233.954 158.41 232.82C127.438 216.903 89.4958 238.02 81.7927 270.731C80.7313 275.239 81.057 279.56 79.9348 283.961C78.5802 288.001 72.5605 288.345 70.4375 284.938C68.3279 281.552 69.7928 275.14 70.3704 271.324C72.9889 254.029 83.6141 238.211 97.7794 228.196C105.02 223.077 121.899 215.374 131.1 217.029C141.653 191.35 173.446 176.26 200.054 180.297L200.041 163.532C200.024 139.984 204.405 137.457 227.944 137.448L250.538 137.445C254.365 137.447 258.567 137.663 262.35 137.262C269.8 136.473 269.259 129.029 265.279 124.501C266.642 124.361 269.871 124.466 271.342 124.472L283.388 124.501C276.312 125.376 275.856 138.071 286.319 137.451C292.983 137.056 298.044 138.551 297.725 129.372C296.708 127.67 294.954 124.948 292.944 124.501C301.158 123.82 319.847 128.583 320.425 118.049L320.618 119.609C323.556 120.163 332.461 119.295 337.375 119.854L337.58 118.049ZM158.41 232.82C158.129 233.954 157.981 234.445 157.537 235.523C146.311 231.803 131.432 234.195 121.286 240.046C119.385 239.404 119.695 234.83 117.056 234.23C109.848 232.592 108.064 237.494 110.728 243.531C109.251 244.822 107.399 246.514 106.235 248.109C84.7744 259.658 93.074 291.466 80.6333 291.703C80.0256 291.715 77.5785 289.473 76.4058 289.213C76.063 290.905 77.9075 299.982 78.3946 302.108C72.9664 305.384 75.8482 313.762 82.8172 312.903C83.9689 316.282 88.6273 323.241 90.9459 326.452C90.641 328.551 90.7719 329.124 90.9459 331.228C93.9577 337.175 107.899 344.105 114.029 346.07C129.002 350.868 149.529 350.842 163.95 343.798C173.039 344.913 195.489 334.407 203.551 329.817C214.128 341.303 229.942 348.871 245.581 349.498L246.47 349.534C250.454 349.897 251.765 350.074 255.721 349.534C269.123 346.272 282.515 346.772 292.944 333.325C295.673 329.022 302.223 322.336 305.853 317.512C310.233 315.459 311.178 312.494 313.338 308.342C331.112 264.632 297.298 215.13 249.273 216.263C239.65 195.537 222.06 184.263 200.054 180.297C173.446 176.26 141.653 191.35 131.1 217.029C121.899 215.374 105.02 223.077 97.7794 228.196C83.6141 238.211 72.9889 254.029 70.3704 271.324C69.7928 275.14 68.3279 281.552 70.4375 284.938C72.5605 288.345 78.5802 288.001 79.9348 283.961C81.057 279.56 80.7313 275.239 81.7927 270.731C89.4958 238.02 127.438 216.903 158.41 232.82Z"/><path transform="scale(2 2)" d="M131.1 217.029C141.653 191.35 173.446 176.26 200.054 180.297C222.06 184.263 239.65 195.537 249.273 216.263C297.298 215.13 331.112 264.632 313.338 308.342C311.178 312.494 310.233 315.459 305.853 317.512C302.223 322.336 295.673 329.022 292.944 333.325C282.515 346.772 269.123 346.272 255.721 349.534C251.765 350.074 250.454 349.897 246.47 349.534L245.581 349.498C229.942 348.871 214.128 341.303 203.551 329.817C195.489 334.407 173.039 344.913 163.95 343.798C149.529 350.842 129.002 350.868 114.029 346.07C107.899 344.105 93.9577 337.175 90.9459 331.228C90.7719 329.124 90.641 328.551 90.9459 326.452C88.6273 323.241 83.9689 316.282 82.8172 312.903C75.8482 313.762 72.9664 305.384 78.3946 302.108C77.9075 299.982 76.063 290.905 76.4058 289.213C77.5785 289.473 80.0256 291.715 80.6333 291.703C93.074 291.466 84.7744 259.658 106.235 248.109C107.399 246.514 109.251 244.822 110.728 243.531C108.064 237.494 109.848 232.592 117.056 234.23C119.695 234.83 119.385 239.404 121.286 240.046C131.432 234.195 146.311 231.803 157.537 235.523C157.981 234.445 158.129 233.954 158.41 232.82C127.438 216.903 89.4958 238.02 81.7927 270.731C80.7313 275.239 81.057 279.56 79.9348 283.961C78.5802 288.001 72.5605 288.345 70.4375 284.938C68.3279 281.552 69.7928 275.14 70.3704 271.324C72.9889 254.029 83.6141 238.211 97.7794 228.196C105.02 223.077 121.899 215.374 131.1 217.029ZM201.701 277.999C202.691 277.471 204.371 270.711 205.01 269.126C208.944 259.381 216.386 250.927 225.333 245.269C224.277 240.813 220.556 235.433 228.339 233.507C233.513 232.227 234.877 239.35 235.962 240.046C244.995 233.136 261.922 232.986 273.046 234.043C274.668 234.197 277.156 235.906 278.711 235.523C255.133 215.458 209.881 232.669 197.365 260.75C199.719 266.042 200.889 272.266 201.701 277.999ZM151.967 218.44C159.48 210.091 170.265 201.244 181.86 199.624L184.578 198.526C183.886 196.287 182.961 193.661 181.86 191.589C167.748 194.962 150.767 203.333 143.897 217.029C146.924 217.348 149.046 217.589 151.967 218.44ZM197.365 199.624L198.755 199.122C204.965 196.867 210.462 197.723 216.809 197.655C210.065 193.803 201.448 190.965 193.599 191.589C194.148 192.756 196.879 199.072 197.365 199.624Z"/><defs><linearGradient id="gradient_0" gradientUnits="userSpaceOnUse" x1="301.81757" y1="321.74106" x2="213.91959" y2="255.22241"><stop offset="0" stop-color="#00A6F4"/><stop offset="1" stop-color="#DB0FFF"/></linearGradient></defs><path fill="url(#gradient_0)" transform="scale(2 2)" d="M235.962 240.046C244.995 233.136 261.922 232.986 273.046 234.043C274.668 234.197 277.156 235.906 278.711 235.523C281.386 236.214 282.922 237.751 285.011 239.349C303.121 253.202 310.8 277.157 304.745 299.05C302.826 305.988 294.119 315.098 305.853 317.512C302.223 322.336 295.673 329.022 292.944 333.325C288.689 324.481 285.248 326.781 278.528 331.031C254.581 346.176 220.754 337.99 205.071 314.811C202.59 311.144 200.7 307.326 198.704 303.384C201.304 294.35 201.971 287.361 201.701 277.999C202.691 277.471 204.371 270.711 205.01 269.126C208.944 259.381 216.386 250.927 225.333 245.269C224.277 240.813 220.556 235.433 228.339 233.507C233.513 232.227 234.877 239.35 235.962 240.046Z"/><path transform="scale(2 2)" d="M225.333 245.269C224.277 240.813 220.556 235.433 228.339 233.507C233.513 232.227 234.877 239.35 235.962 240.046C239.083 239.906 240.724 239.829 243.732 241.04C251.476 231.175 267.071 245.143 253.695 256.438C245.847 282.168 218.05 268.273 223.155 251.798C223.691 250.069 225.963 246.607 225.333 245.269Z"/><path fill="#DB0FFF" transform="scale(2 2)" d="M233.156 254.528C233.378 253.001 234.277 251.655 235.603 250.866C236.929 250.076 238.54 249.926 239.989 250.458C242.515 251.386 243.892 254.11 243.141 256.694C242.39 259.278 239.767 260.84 237.138 260.27C234.508 259.699 232.769 257.191 233.156 254.528Z"/><path fill="#DB0FFF" transform="scale(2 2)" d="M233.156 254.528C233.378 253.001 234.277 251.655 235.603 250.866C236.929 250.076 238.54 249.926 239.989 250.458C236.3 257.035 240.035 255.651 233.156 254.528Z"/><path fill="#00A6F4" transform="scale(2 2)" d="M158.41 232.82C185.405 244.438 197.374 279.012 185.763 305.961C172.468 336.818 133.741 347.397 105.988 329.723C100.667 326.334 96.9812 320.813 90.9459 326.452C88.6273 323.241 83.9689 316.282 82.8172 312.903C75.8482 313.762 72.9664 305.384 78.3946 302.108C77.9075 299.982 76.063 290.905 76.4058 289.213C77.5785 289.473 80.0256 291.715 80.6333 291.703C93.074 291.466 84.7744 259.658 106.235 248.109C107.399 246.514 109.251 244.822 110.728 243.531C108.064 237.494 109.848 232.592 117.056 234.23C119.695 234.83 119.385 239.404 121.286 240.046C131.432 234.195 146.311 231.803 157.537 235.523C157.981 234.445 158.129 233.954 158.41 232.82Z"/><path transform="scale(2 2)" d="M110.728 243.531C108.064 237.494 109.848 232.592 117.056 234.23C119.695 234.83 119.385 239.404 121.286 240.046C123.761 240.281 125.086 240.885 127.288 241.915C138.331 233.899 151.173 253.458 134.424 259.356C129.502 280.54 96.2 272.358 106.235 248.109C107.399 246.514 109.251 244.822 110.728 243.531Z"/><path fill="#DB0FFF" transform="scale(2 2)" d="M123.874 258.337C119.489 265.671 111.643 257.48 116.027 252.539C118.097 250.205 121.185 249.943 123.874 251.602C124.939 253.525 124.641 256.351 123.874 258.337Z"/><path fill="#DB0FFF" transform="scale(2 2)" d="M123.874 251.602C124.939 253.525 124.641 256.351 123.874 258.337C123.191 257.993 123.226 258.019 122.7 257.464C123.04 256.707 123.018 253.343 122.7 252.502L123.874 251.602Z"/><path fill="#DB0FFF" transform="scale(2 2)" d="M122.7 252.502C123.018 253.343 123.04 256.707 122.7 257.464C120.889 255.397 120.548 254.476 122.7 252.502Z"/><path transform="scale(2 2)" d="M78.3946 302.108C87.1739 299.962 90.7956 308.379 82.8172 312.903C75.8482 313.762 72.9664 305.384 78.3946 302.108Z"/><path fill="#589FEF" transform="scale(2 2)" d="M193.599 317.512C196.503 322.546 199.459 325.809 203.551 329.817C195.489 334.407 173.039 344.913 163.95 343.798C164.924 342.963 167.904 341.393 169.146 340.676C182.895 332.731 184.001 326.41 193.268 317.815L193.599 317.512Z"/><path fill="#DB0FFF" transform="scale(2 2)" d="M216.809 197.655C225.409 202.281 232.235 208.57 237.209 217.029C217.54 222.052 202.785 229.879 191.596 248.109C184.186 234.323 168.266 223.319 153.45 218.875L151.967 218.44C159.48 210.091 170.265 201.244 181.86 199.624C180.09 201.482 177.592 202.549 176.321 205.039C166.704 223.881 192.418 238.453 203.551 218.44C218.036 219.575 217.063 194.957 200.054 200.673C198.949 200.139 198.539 199.893 197.365 199.624L198.755 199.122C204.965 196.867 210.462 197.723 216.809 197.655Z"/><path fill="#DB0FFF" transform="scale(2 2)" d="M189.479 207.776C196.159 207.627 195.694 215.051 190.255 218.44C184.385 218.57 181.05 210.072 189.479 207.776Z"/><path transform="scale(2 2)" d="M189.473 209.096C190.607 208.602 191.928 209.105 192.447 210.228C192.966 211.351 192.492 212.683 191.381 213.226C190.64 213.588 189.761 213.521 189.084 213.051C188.406 212.58 188.037 211.78 188.117 210.959C188.198 210.138 188.717 209.425 189.473 209.096Z"/><path fill="#589FEF" transform="scale(2 2)" d="M374.989 113.247C386.328 113.094 397.914 113.244 409.256 113.334C424.53 113.456 435.371 129.091 435.506 143.643L435.5 294.803C435.554 328.5 430.32 336.553 395.966 336.738C384.888 336.798 373.619 336.581 362.506 336.733C353.47 336.234 335.754 340.677 332.559 331.928C308.072 331.843 314.377 329.692 295 341.71C286.225 347.153 265.677 353.308 255.721 349.534C269.123 346.272 282.515 346.772 292.944 333.325C295.673 329.022 302.223 322.336 305.853 317.512C310.233 315.459 311.178 312.494 313.338 308.342C316.466 308.611 323.784 308.361 327.262 308.355L379.821 308.363C403.334 308.401 409.951 306.467 409.979 281.218L409.969 173.656C409.979 161.692 412.348 142.509 404.479 132.915C402.485 130.485 397.278 124.866 394.108 124.501C386.874 124.473 370.774 127.941 371.667 118.049C372.011 115.047 372.515 114.769 374.989 113.247Z"/><path transform="scale(2 2)" d="M374.989 113.247C386.328 113.094 397.914 113.244 409.256 113.334C424.53 113.456 435.371 129.091 435.506 143.643L435.5 294.803C435.554 328.5 430.32 336.553 395.966 336.738C384.888 336.798 373.619 336.581 362.506 336.733C353.47 336.234 335.754 340.677 332.559 331.928C332.919 328.134 334.626 325.502 338.657 325.475L395.336 325.467C407.785 325.504 424.215 327.018 424.126 308.636L424.092 158.704C424.155 130.031 424.554 124.463 394.108 124.501C386.874 124.473 370.774 127.941 371.667 118.049C372.011 115.047 372.515 114.769 374.989 113.247Z"/><path transform="scale(2 2)" d="M337.58 118.049C339.281 110.239 351.648 111.503 353.044 118.656C351.055 126.785 338.082 127.486 337.58 118.049Z"/><path transform="scale(2 2)" d="M227.099 160.78C236.359 160.468 269.685 178.607 253.695 188.538C249.211 188.407 240.849 176.611 231.723 173.104C228.884 172.013 223.901 171.5 222.858 168.141C221.697 164.401 223.776 161.959 227.099 160.78Z"/><path transform="scale(2 2)" d="M344.729 155.762C354.832 154.667 351.26 170.582 344.729 173.535C334.839 175.856 336.107 158.532 344.729 155.762Z"/><path transform="scale(2 2)" d="M351.625 179.631C366.873 178.488 368.686 189.089 359.871 191.589C353.87 192.04 348.492 191.69 346.623 185.393C347.356 181.976 348.1 180.414 351.625 179.631Z"/><path transform="scale(2 2)" d="M317.771 170.015C327.833 169.857 337.248 178.531 326.368 182.886C314.668 183.518 308.146 173.744 317.771 170.015Z"/><path transform="scale(2 2)" d="M333.564 188.538C344.553 189.513 340.661 203.149 334.548 205.291C330.577 205.714 328.784 204.329 327.292 200.673C327.908 196.441 328.904 189.891 333.564 188.538Z"/><path transform="scale(2 2)" d="M96.8727 378.582C67.8143 379.102 76.1799 354.451 87.267 353.025C90.1909 352.649 96.0004 353.133 99.3909 353.126L197.022 353.126C209.942 353.125 223.068 353.268 235.962 353.128C236.462 356.079 236.829 357.134 238.012 359.905C240.549 364.575 242.508 365.491 247.594 365.478C262.447 365.439 277.267 365.612 292.123 365.382C304.658 365.188 298.623 354.194 305.844 353.636C310.602 353.269 315.684 353.427 320.468 353.434L349.676 353.451L436.999 353.438C440.419 353.417 444.345 353.179 447.667 353.6C458.391 354.96 462.83 368.35 454.963 375.651C450.715 379.591 445.364 377.81 440.162 378.582C434.859 395.219 426.169 393.28 410.975 393.375C408.476 393.391 405.827 393.543 403.415 392.795C398.637 391.383 398.13 384.604 402.472 382.301C401.55 381.798 384.15 381.444 382.228 381.816C395.753 395.711 360.116 396.604 371.667 382.301L371.199 382.027C366.017 382.597 358.367 382.231 353.044 382.301C354.561 384.13 354.575 384.717 355.096 387C353.085 396.494 336.8 393.394 328.624 393.379L114.932 393.381C111.547 393.393 107.908 393.637 104.577 393.371C101.67 390.767 98.4681 382.454 96.8727 378.582ZM132.891 364.59C119.277 364.759 105.725 364.408 92.1211 364.082C90.412 364.041 88.1318 363.818 88.695 366.139C90.5675 368.833 101.085 367.019 104.577 367.538C105.281 367.447 106.687 366.957 107.49 366.782C112.848 365.616 132.499 365.307 138.959 365.597L139.038 365.482C137.196 365.804 134.712 365.071 132.891 364.59Z"/><path fill="#BCDEF6" transform="scale(2 2)" d="M311.536 364.59L420.131 364.59C425.924 364.889 422.669 379.237 417.057 381.816C413.025 381.799 406.175 381.518 402.472 382.301C401.55 381.798 384.15 381.444 382.228 381.816C395.753 395.711 360.116 396.604 371.667 382.301L371.199 382.027C366.017 382.597 358.367 382.231 353.044 382.301C349.636 381.244 336.535 381.82 331.908 381.819L110.728 381.816C108.836 377.605 106.017 371.776 104.577 367.538C105.281 367.447 106.687 366.957 107.49 366.782C112.848 365.616 132.499 365.307 138.959 365.597L139.038 365.482C137.196 365.804 134.712 365.071 132.891 364.59L213.016 364.621C214.467 364.626 220.108 364.739 221.098 364.59C224.168 365.602 226.117 366.715 229.588 367.538C233.72 372.707 238.467 376.453 245.354 376.532C261.879 376.709 278.47 376.822 294.991 376.484C302.133 376.337 309.069 371.252 311.536 364.59Z"/><path transform="scale(2 2)" d="M371.667 382.301C375.234 380.99 378.564 381.263 382.228 381.816C395.753 395.711 360.116 396.604 371.667 382.301Z"/><path fill="#C93BC2" transform="scale(2 2)" d="M420.131 364.59C423.437 364.278 448.624 362.069 448.213 366.981C446.926 368.197 440.06 366.666 435.954 368.615C423.572 374.491 437.392 381.819 417.057 381.816C422.669 379.237 425.924 364.889 420.131 364.59Z"/><path fill="#CCD9F1" transform="scale(2 2)" d="M221.098 364.59C224.228 364.882 225.193 365.022 228.28 364.59L229.588 367.538C226.117 366.715 224.168 365.602 221.098 364.59Z"/><path transform="scale(2 2)" d="M265.279 124.501C251.69 124.165 236.56 124.501 222.862 124.501L206.894 124.495C190.113 124.425 182.661 127.065 182.727 144.419L182.769 153.981C182.802 165.104 174.768 167.19 172.144 160.955C170.849 157.877 171.363 140.103 171.849 136.448C175.028 112.503 195.856 113.241 213.467 113.248L313.497 113.21C317.699 113.189 318.987 114.193 320.425 118.049C319.847 128.583 301.158 123.82 292.944 124.501C289.76 124.463 286.573 124.488 283.388 124.501L271.342 124.472C269.871 124.466 266.642 124.361 265.279 124.501Z"/><path fill="white" transform="scale(2 2)" d="M255.721 349.534C265.677 353.308 286.225 347.153 295 341.71C314.377 329.692 308.072 331.843 332.559 331.928C335.754 340.677 353.47 336.234 362.506 336.733C361.749 336.782 360.999 336.706 360.47 337.171L360.468 337.593C363.745 340.529 383.799 341.7 385.596 345.24C383.713 345.569 380.152 346.028 378.456 345.771C371.918 344.781 353.03 346.672 350.383 345.66C339.857 341.636 344.86 342.291 345.268 338.063C344.671 337.761 336.799 337.471 335.958 337.596C333.784 336.209 333.413 334.574 331.671 333.016C330.176 331.679 327.781 336.754 324.231 336.194L323.98 336.462C324.418 336.907 324.352 336.774 325.015 337.017L325.675 337.915C313.126 340.948 313.623 335.595 299.983 346.155L299.585 345.713C300.593 340.218 298.323 344.509 295.612 344.979C293.47 345.353 291.852 344.548 290.406 346.69C281.487 359.907 272.331 356.072 259.805 355.648L259.602 356.155C259.135 356.138 259.102 356.142 258.63 356.291L258.367 355.819L257.809 356.188L257.351 356.021C255.153 356.299 243.256 358.742 242.275 359.994L242.364 360.516C246.427 363.289 258.007 362.6 263.183 362.315C269.528 362.025 275.336 360.001 282.427 362.067C295.376 365.841 291.996 361.144 298.432 361.232L298.469 360.908L297.96 360.625C301.162 358.272 300.41 353.992 303.372 353.282C308.832 351.973 314.591 353.084 319.885 353.086L338.889 353.132C341.797 353.133 346.668 352.973 349.414 353.226L349.676 353.451L320.468 353.434C315.684 353.427 310.602 353.269 305.844 353.636C298.623 354.194 304.658 365.188 292.123 365.382C277.267 365.612 262.447 365.439 247.594 365.478C242.508 365.491 240.549 364.575 238.012 359.905L238.535 360.043C240.655 359.042 239.96 356.271 242.068 354.743C243.586 353.643 251.81 352.487 251.602 350.436C250.081 350.384 247.608 350.536 246.47 349.534C250.454 349.897 251.765 350.074 255.721 349.534Z"/><path transform="scale(2 2)" d="M85.4694 165.048C94.6866 164.238 92.3147 179.466 85.4694 182.886C75.7537 182.268 79.5598 166.256 85.4694 165.048Z"/><path transform="scale(2 2)" d="M58.8024 181.578C63.5307 181.58 77.4798 190.342 65.0219 195.76C56.8767 194.51 47.3401 184.143 58.8024 181.578Z"/><path transform="scale(2 2)" d="M85.4694 194.259C90.1046 194.033 101.397 206.204 90.9459 209.494C84.6432 209.711 74.3816 197.668 85.4694 194.259Z"/></svg>