<?xml version="1.0" encoding="utf-8" ?><svg xmlns="http://www.w3.org/2000/svg" xmlns:xlink="http://www.w3.org/1999/xlink" width="1024" height="1024" viewBox="0 0 1024 1024"><path fill="#BCDEF6" transform="scale(2 2)" d="M97.9703 290.502C88.4431 292.091 90.4806 280.123 90.4793 274.326L90.4954 162.945C90.4841 157.501 90.1039 150.514 90.8244 145.15C93.6264 124.286 115.588 126.49 130.389 126.493L339.485 126.495C341.049 126.496 344.999 126.298 346.231 126.667C351.671 128.295 351.739 134.428 347.239 137.196C348.539 138.137 366.554 138.697 368.23 137.723C365.969 136.222 365.591 135.714 365.28 133.005L365.225 132.546C365.216 132.454 365.206 132.362 365.197 132.27C365.531 129.433 366.586 126.673 370.001 126.63C384.064 126.452 402.494 124.98 405.523 144.347C406.096 148.012 405.836 152.493 405.831 156.255L405.84 176.094C405.845 181.754 408.849 200.658 398.69 197.967C398.44 201.991 398.667 206.414 398.681 210.506L398.667 252.788C398.663 254.979 398.506 260.281 398.69 262.187C405.172 258.901 418.74 254.147 421.852 263.895C419.442 276.589 403.527 263.791 398.69 279.494C403.028 280.403 407.44 281.134 411.629 282.527C429.751 288.553 453.021 308.638 455.857 328.329C455.438 331.584 455.338 331.923 452.508 333.757C454.071 337.665 455.091 345.339 454.614 349.521C464.03 352.792 459.098 365.077 456.521 372.358C443.564 408.97 403.469 427.416 367.192 414.221C356.986 410.51 346.247 403.791 339.358 395.246C326.306 395.1 313.097 395.247 300.029 395.247L189.086 395.256C181.557 395.262 169.67 398.119 167.604 389.906L150.881 389.906C150.389 394.057 147.552 395.264 143.77 395.264L94.8647 395.259C80.8991 395.27 70.3028 395.13 59.4708 384.533C53.477 378.67 44.0437 364.404 51.3121 356.511C54.6243 352.914 62.963 353.851 67.5123 354.003C69.9277 347.499 75.066 340.112 77.8941 333.632C80.9675 326.59 83.3508 324.253 90.4907 321.453C90.5549 316.063 88.2742 304.055 97.9703 307.067C97.7782 301.927 97.9938 295.775 97.9703 290.502ZM108.36 360.755L108.36 360.755C112.14 360.745 124.026 360.448 127.141 361.232C125.777 352.475 134.335 353.96 140.077 353.988L203.599 354.003C206.814 356.106 207.861 359.099 210.682 361.232L257.629 361.232C259.166 359.557 259.559 358.88 261.414 357.501C255.319 348.105 254.133 343.745 251.74 332.969L150.249 332.969C131.019 332.969 111.123 332.692 91.9729 332.969C88.5987 336.45 82.1112 349.332 80.4442 354.003C89.6658 354.297 107.331 350.127 108.36 360.755Z"/><path transform="scale(2 2)" d="M353.487 234.491C368.452 212.395 392.384 225.007 377.864 233.88C370.835 233.535 367.78 235.047 363.246 240.345C386.384 240.511 393.599 261.534 382.386 279.494C383.659 279.389 384.224 279.408 385.503 279.494C388.589 271.829 391.212 266.47 398.69 262.187C405.172 258.901 418.74 254.147 421.852 263.895C419.442 276.589 403.527 263.791 398.69 279.494C403.028 280.403 407.44 281.134 411.629 282.527C429.751 288.553 453.021 308.638 455.857 328.329C455.438 331.584 455.338 331.923 452.508 333.757C454.071 337.665 455.091 345.339 454.614 349.521C464.03 352.792 459.098 365.077 456.521 372.358C443.564 408.97 403.469 427.416 367.192 414.221C356.986 410.51 346.247 403.791 339.358 395.246C326.306 395.1 313.097 395.247 300.029 395.247L189.086 395.256C181.557 395.262 169.67 398.119 167.604 389.906L150.881 389.906C150.389 394.057 147.552 395.264 143.77 395.264L94.8647 395.259C80.8991 395.27 70.3028 395.13 59.4708 384.533C53.477 378.67 44.0437 364.404 51.3121 356.511C54.6243 352.914 62.963 353.851 67.5123 354.003C69.9277 347.499 75.066 340.112 77.8941 333.632C80.9675 326.59 83.3508 324.253 90.4907 321.453C90.5549 316.063 88.2742 304.055 97.9703 307.067C103.375 310.798 101.31 315.574 101.712 321.453C104.135 321.47 106.791 321.542 109.194 321.453C114.063 321.616 119.83 321.457 124.79 321.456L251.74 321.453L251.627 320.181C250.562 309.349 265.55 272.735 276.583 280.946C280.257 277.924 285.531 274.121 290.171 272.887C285.637 261.444 305.915 261.263 312.724 261.149C312.287 237.78 335.066 220.255 353.487 234.491ZM108.36 360.755L108.36 360.755C112.14 360.745 124.026 360.448 127.141 361.232C125.777 352.475 134.335 353.96 140.077 353.988L203.599 354.003C206.814 356.106 207.861 359.099 210.682 361.232L257.629 361.232C259.166 359.557 259.559 358.88 261.414 357.501C255.319 348.105 254.133 343.745 251.74 332.969L150.249 332.969C131.019 332.969 111.123 332.692 91.9729 332.969C88.5987 336.45 82.1112 349.332 80.4442 354.003C89.6658 354.297 107.331 350.127 108.36 360.755Z"/><path fill="#00A6F4" transform="scale(2 2)" d="M341.203 378.791C341.477 377.001 340.289 370.998 340.103 368.662C337.206 332.159 361.554 294.039 401.279 295.29C403.391 295.357 412.471 296.171 413.513 295.48C425.937 302.961 434.986 309.556 441.934 323.139C444.838 328.817 444.337 335.24 452.508 333.757C454.071 337.665 455.091 345.339 454.614 349.521C447.566 351.068 449.119 355.307 447.805 361.007C436.491 410.075 374.521 423.695 344.078 383.128C343.01 381.705 342.006 380.382 341.203 378.791Z"/><path transform="scale(2 2)" d="M430.477 344.075C434.993 343.491 438.571 345.627 438.332 350.591C437.413 369.688 419.671 395.164 399.758 395.246C394.798 396.385 392.943 394.732 391.659 389.906C393.002 383.859 395.711 384.821 400.474 383.496C415.375 379.348 426.546 364.745 426.715 349.282C426.745 346.546 428.037 345.071 430.477 344.075Z"/><path transform="scale(2 2)" d="M375.213 309.537C379.235 309.332 382.589 313.224 381.541 317.148C380.55 320.861 376 321.66 373.123 323.423C368.543 326.228 364.999 331.894 361.63 333.757C342.146 331.695 365.302 312.197 375.213 309.537Z"/><path fill="#BCDEF6" transform="scale(2 2)" d="M108.36 360.755L108.36 360.755C112.14 360.745 124.026 360.448 127.141 361.232C129.935 368.714 147.432 365.582 155.387 365.581L199.607 365.58C205.332 373.448 210.004 372.565 218.797 372.573L250.247 372.58C260.297 372.58 262.506 373.722 269.441 365.58C287.16 365.575 305.312 365.356 322.993 365.58C325.074 373.287 326.802 376.799 330.247 383.73L191.082 383.719C182.236 383.712 170 380.504 167.604 389.906L150.881 389.906C150.002 381.371 139.671 383.731 132.864 383.734L102.613 383.736C87.8414 383.735 72.2563 385.629 63.141 371.214C62.5417 370.266 60.4473 366.662 60.7165 365.601L61.3276 365.58C62.4294 365.314 67.7669 365.545 69.2991 365.553L88.5556 365.592C96.5045 365.601 104.022 367.7 108.36 360.755Z"/><path fill="#4D91E3" transform="scale(2 2)" d="M108.36 360.755L108.36 360.755C111.108 365.208 107.819 371.202 103.687 373.185C98.9785 375.445 91.2012 374.374 86.0001 374.423C79.7966 374.481 76.1611 369.87 72.7337 365.58C69.0856 365.577 64.9317 365.47 61.3276 365.58C62.4294 365.314 67.7669 365.545 69.2991 365.553L88.5556 365.592C96.5045 365.601 104.022 367.7 108.36 360.755Z"/><path fill="#008DCD" transform="scale(2 2)" d="M322.993 272.887C334.477 276.955 343.321 280.697 351.149 290.502C349.006 292.065 346.391 294.087 344.221 295.48C334.929 305.411 331.303 308.645 325.141 321.453C320.107 335.657 320.7 340.164 320.492 354.003L287.871 354.016C284.077 354.018 275.954 354.276 272.559 354.003C270.692 351.343 269.34 349.162 267.853 346.264C268.337 345.426 267.882 339.905 267.839 338.427C267.287 319.547 277.77 294.64 295.258 285.81C304.867 280.958 315.366 281.039 322.993 272.887Z"/><path fill="#004D73" transform="scale(2 2)" d="M325.141 321.453C320.641 318.634 316.342 310.901 321.604 306.763C324.469 304.364 328.524 302.566 331.392 300.279C337.72 295.234 335.576 292.457 344.221 295.48C334.929 305.411 331.303 308.645 325.141 321.453Z"/><path transform="scale(2 2)" d="M300.906 291.597C305.758 291.197 311.296 292.349 310.367 298.861C309.502 304.933 300.289 302.174 295.782 305.142C292.285 307.446 291.653 310.313 288.995 312.343C287.885 312.862 286.989 313.039 285.809 313.338C281.959 312.421 280.64 310.75 279.618 307.067C281.629 298.576 292.711 292.52 300.906 291.597Z"/><path fill="white" transform="scale(2 2)" d="M341.203 378.791C313.132 337.046 351.091 280.776 400.976 291.562C405.256 292.487 409.277 294.282 413.513 295.48C412.471 296.171 403.391 295.357 401.279 295.29C361.554 294.039 337.206 332.159 340.103 368.662C340.289 370.998 341.477 377.001 341.203 378.791Z"/><path fill="white" transform="scale(2 2)" d="M294.508 275.415C306.065 272.614 310.116 271.005 322.993 272.887C315.366 281.039 304.867 280.958 295.258 285.81C277.77 294.64 267.287 319.547 267.839 338.427C267.882 339.905 268.337 345.426 267.853 346.264C259.429 329.497 260.548 310.095 271.913 295.027C275.467 290.315 282.909 286.99 276.583 280.946C280.257 277.924 285.531 274.121 290.171 272.887C291.739 274.469 292.373 274.731 294.508 275.415Z"/><path fill="#015BD3" transform="scale(2 2)" d="M338.523 241.577C344.769 240.959 347.094 243.241 351.149 247.41C349.367 252.769 350.083 259.361 357.444 257.222C361.082 256.165 359.966 251.823 363.666 251.569C369.754 251.151 376.455 255.858 376.471 262.331C376.49 270.053 370.211 275.88 365.197 280.946L361.63 284.452C346.381 266.901 341.705 269.227 324.232 261.352L323.786 261.149C322.604 250.95 328.328 243.166 338.523 241.577Z"/><path fill="white" transform="scale(2 2)" d="M335.185 245.609C337.797 245.256 340.397 246.341 341.983 248.446C343.569 250.551 343.896 253.349 342.837 255.763C341.778 258.177 339.499 259.831 336.876 260.09C332.919 260.48 329.379 257.629 328.918 253.68C328.457 249.731 331.245 246.14 335.185 245.609Z"/><path transform="scale(2 2)" d="M97.9703 290.502C88.4431 292.091 90.4806 280.123 90.4793 274.326L90.4954 162.945C90.4841 157.501 90.1039 150.514 90.8244 145.15C93.6264 124.286 115.588 126.49 130.389 126.493L339.485 126.495C341.049 126.496 344.999 126.298 346.231 126.667C351.671 128.295 351.739 134.428 347.239 137.196C343.279 138.145 335.284 137.732 330.865 137.729L119.124 137.708C100.375 137.642 101.663 144.188 101.719 160.347L101.75 277.642C101.794 283.071 103.248 287.526 97.9703 290.502Z"/><path fill="white" transform="scale(2 2)" d="M347.239 137.196C348.539 138.137 366.554 138.697 368.23 137.723C377.991 138.356 389.002 134.684 394.535 144.748C391 145.373 381.628 144.752 377.435 144.749L140.209 144.745C130.09 144.734 111.568 141.47 111.198 155.838C111.019 162.806 111.076 169.703 111.079 176.657L111.084 280.902C111.082 293.276 110.985 305.667 111.201 318.037C111.241 320.338 111.935 321.255 109.194 321.453C106.791 321.542 104.135 321.47 101.712 321.453C101.31 315.574 103.375 310.798 97.9703 307.067C97.7782 301.927 97.9938 295.775 97.9703 290.502C103.248 287.526 101.794 283.071 101.75 277.642L101.719 160.347C101.663 144.188 100.375 137.642 119.124 137.708L330.865 137.729C335.284 137.732 343.279 138.145 347.239 137.196Z"/><path transform="scale(2 2)" d="M365.197 132.27C365.531 129.433 366.586 126.673 370.001 126.63C384.064 126.452 402.494 124.98 405.523 144.347C406.096 148.012 405.836 152.493 405.831 156.255L405.84 176.094C405.845 181.754 408.849 200.658 398.69 197.967C396.537 196.927 394.898 196.004 394.752 193.353C393.865 177.291 395.133 160.781 394.535 144.748C389.002 134.684 377.991 138.356 368.23 137.723C365.969 136.222 365.591 135.714 365.28 133.005L365.225 132.546C365.216 132.454 365.206 132.362 365.197 132.27Z"/><path transform="scale(2 2)" d="M296.785 163.353C300.493 163.265 304.793 164.662 304.7 169.244C304.516 178.241 293.415 171.656 285.278 180.272C313.047 186.393 318.073 225.865 285.278 231.852C276.716 239.614 271.402 242.901 259.417 240.345C248.342 236.525 242.346 228.01 242.336 216.379C218.666 195.978 244.127 155.965 274.768 176.293C278.778 167.665 287.782 163.981 296.785 163.353Z"/><path fill="#015BD3" transform="scale(2 2)" d="M256.38 182.298C261.446 181.836 270.017 184.343 270.179 189.886C270.458 199.444 280.417 202.249 281.805 190.529C301.274 195.213 301.604 219.25 283.211 220.987C274.939 221.823 276.822 227.292 269.543 229.569C261.446 232.101 253.883 225.768 253.367 217.74C252.825 209.296 258.138 214.751 248.831 206.499C240.492 199.106 244.623 185.088 256.38 182.298Z"/><path fill="white" transform="scale(2 2)" d="M254.902 187.391C257.348 187.058 259.781 188.08 261.256 190.059C262.732 192.037 263.016 194.661 261.999 196.91C260.982 199.159 258.825 200.679 256.365 200.878C252.701 201.175 249.467 198.501 249.07 194.846C248.674 191.192 251.26 187.886 254.902 187.391Z"/><path transform="scale(2 2)" d="M219.27 220.987C226.504 217.845 230.745 229.752 222.699 231.639C216.389 233.118 216.68 231.833 212.067 236.939C239.305 242.266 242.785 278.817 219.411 287.487C216.894 288.421 213.72 288.384 211.328 289.673C202.121 294.632 200.403 300.379 185.74 296.811C172.596 292.143 170.914 284.38 168.406 272.887C141.214 244.137 179.627 215.648 200.777 233.88C204.76 226.825 210.771 221.083 219.27 220.987Z"/><path fill="#015BD3" transform="scale(2 2)" d="M183.112 240.345C188.014 238.736 192.144 240.826 196.141 243.471C195.948 245.46 195.484 247.421 195.318 249.433C194.877 254.782 205.246 260.353 206.725 247.41C227.244 250.128 228.672 275.175 212.067 277.951C211.074 277.994 207.581 278.111 206.903 278.35C200.778 280.509 195.6 291.285 185.355 284.201C179.419 280.096 181.393 271.507 179.737 268.308C178.11 265.165 171.014 261.463 170.677 254.747C170.302 247.266 175.728 240.953 183.112 240.345Z"/><path fill="white" transform="scale(2 2)" d="M180.552 244.281C189.789 244.005 191.08 256.031 182.31 258.205C173.55 258.535 171.961 247.32 180.552 244.281Z"/><path fill="white" transform="scale(2 2)" d="M125.365 156.758C128.857 156.402 131.99 158.913 132.403 162.399C132.816 165.886 130.356 169.059 126.877 169.529C124.576 169.84 122.285 168.886 120.885 167.032C119.485 165.179 119.193 162.714 120.121 160.585C121.05 158.456 123.054 156.993 125.365 156.758Z"/><path transform="scale(2 2)" d="M448.395 151.304C454.19 150.913 455.595 154.556 455.857 159.626C467.545 159.965 466.041 171.14 455.857 171.422C455.554 175.343 455.013 177.168 451.429 179.121C445.506 180.089 444.178 176.504 443.666 171.422C438.609 171.096 436.931 170.202 435.563 165.51C436.916 160.6 438.61 159.285 443.666 159.626C443.804 157.363 444.008 155.795 444.681 153.649C446.05 152.188 446.574 151.996 448.395 151.304Z"/><path transform="scale(2 2)" d="M147.421 89.5278C152.834 90.0916 153.57 93.8951 153.491 98.5289C167.014 98.1188 166.045 109.975 153.491 109.361C153.572 113.663 153.421 116.758 148.693 118.039C143.02 118.222 142.217 114.047 142.399 109.361L142.061 109.387C131.4 110.089 129.003 98.0812 142.399 98.5289C142.358 93.8562 142.186 90.7767 147.421 89.5278Z"/><path transform="scale(2 2)" d="M59.6661 251.55C65.7182 251.599 63.9428 254.04 66.2323 257.018C67.1434 257.563 69.0703 257.576 69.8925 258.162C74.9975 261.797 71.6918 268.119 66.2994 268.565C65.1279 271.747 64.6216 273.144 61.3276 274.242C56.9777 274.589 55.6057 272.412 54.8263 268.565C47.5201 268.17 45.9868 258.755 53.8991 257.277C56.2637 256.835 53.7827 253.007 59.6661 251.55Z"/><path transform="scale(2 2)" d="M425.318 97.1173C429.386 96.9768 432.817 100.12 433.032 104.184C433.248 108.249 430.169 111.737 426.109 112.028C423.415 112.221 420.827 110.945 419.341 108.69C417.855 106.435 417.702 103.553 418.941 101.153C420.18 98.7538 422.619 97.2105 425.318 97.1173Z"/></svg>